<svg width="113" height="140" viewBox="0 0 113 140" fill="none" xmlns="http://www.w3.org/2000/svg">
<g opacity="0.04" clip-path="url(#clip0_12_16409)">
<path fill-rule="evenodd" clip-rule="evenodd" d="M40.8333 11.667C39.3696 11.6663 37.9591 12.216 36.8818 13.2069C35.8044 14.1978 35.139 15.5575 35.0175 17.0162L32.5208 47.0112C32.455 47.8017 32.2286 48.5706 31.8555 49.2707C31.4824 49.9707 30.9704 50.5874 30.3508 51.0828L21.8808 57.8612C20.5147 58.9535 19.4117 60.339 18.6534 61.9152C17.8951 63.4914 17.5009 65.2179 17.5 66.967V116.667C17.5 119.761 18.7292 122.729 20.9171 124.917C23.105 127.104 26.0725 128.334 29.1667 128.334H64.1667C67.2609 128.334 70.2283 127.104 72.4162 124.917C74.6042 122.729 75.8333 119.761 75.8333 116.667V66.967C75.8331 65.2184 75.4398 63.4921 74.6825 61.916C73.9253 60.3398 72.8234 58.9541 71.4583 57.8612L62.9825 51.0828C62.3629 50.5874 61.8509 49.9707 61.4778 49.2707C61.1047 48.5706 60.8783 47.8017 60.8125 47.0112L58.3158 17.0162C58.1943 15.5575 57.5289 14.1978 56.4516 13.2069C55.3742 12.216 53.9637 11.6663 52.5 11.667H40.8333ZM90.3875 46.667C88.1821 46.6659 86.0504 47.4606 84.3841 48.9052C82.7177 50.3498 81.6285 52.3471 81.3167 54.5303L78.365 75.1803C77.6477 80.198 78.7674 85.3059 81.5179 89.5635C84.2683 93.821 88.4644 96.9415 93.3333 98.3503V116.667H90.4167C88.8696 116.667 87.3858 117.282 86.2919 118.376C85.1979 119.469 84.5833 120.953 84.5833 122.5C84.5833 124.047 85.1979 125.531 86.2919 126.625C87.3858 127.719 88.8696 128.334 90.4167 128.334H107.917C109.464 128.334 110.947 127.719 112.041 126.625C113.135 125.531 113.75 124.047 113.75 122.5C113.75 120.953 113.135 119.469 112.041 118.376C110.947 117.282 109.464 116.667 107.917 116.667H105V98.3503C109.868 96.9416 114.063 93.822 116.813 89.5657C119.564 85.3094 120.684 80.2029 119.968 75.1862L117.017 54.5362C116.706 52.3519 115.617 50.3532 113.951 48.9074C112.284 47.4617 110.152 46.6661 107.946 46.667H90.3875Z" fill="#E3770B"/>
</g>
<defs>
<clipPath id="clip0_12_16409">
<rect width="140" height="140" fill="white"/>
</clipPath>
</defs>
</svg>
