<svg width="89" height="102" viewBox="0 0 89 102" fill="none" xmlns="http://www.w3.org/2000/svg">
<g opacity="0.04">
<path d="M87.564 26.52H77.5191V15.859C77.5191 8.23756 71.5051 2.04004 63.8633 2.04004H38.1369C30.4909 2.04004 24.4791 8.23756 24.4791 15.859V26.52H14.4321C7.58582 26.52 2.03906 31.8057 2.03906 38.6315V85.5658C2.03906 92.3896 7.58582 97.9201 14.4321 97.9201H87.564C94.4082 97.9201 99.9591 92.3896 99.9591 85.5638V38.6315C99.9591 31.8057 94.4082 26.52 87.564 26.52ZM32.6391 15.859C32.6391 13.005 35.2747 10.2 38.1369 10.2H63.8633C66.7173 10.2 69.3591 13.005 69.3591 15.859V26.52H32.6391V15.859ZM73.4391 71.4H59.1591V85.68H42.8391V71.4H28.5591V55.08H42.8391V40.8H59.1591V55.08H73.4391V71.4Z" fill="#E3770B"/>
</g>
</svg>
