<svg width="105" height="128" viewBox="0 0 105 128" fill="none" xmlns="http://www.w3.org/2000/svg">
<g opacity="0.04">
<path d="M90.6693 26.667V37.3337C94.9127 37.3337 98.9824 39.0194 101.983 42.0199C104.984 45.0205 106.669 49.0902 106.669 53.3337V112C106.669 113.415 106.107 114.771 105.107 115.772C104.107 116.772 102.75 117.334 101.336 117.334H26.6693C25.2548 117.334 23.8982 116.772 22.898 115.772C21.8978 114.771 21.3359 113.415 21.3359 112V53.3337C21.3359 49.0902 23.0216 45.0205 26.0222 42.0199C29.0228 39.0194 33.0925 37.3337 37.3359 37.3337V26.667H90.6693ZM69.3359 58.667H58.6693V69.3337H48.0026V80.0003H58.6639L58.6693 90.667H69.3359L69.3306 80.0003H80.0026V69.3337H69.3359V58.667ZM101.336 10.667V21.3337H26.6693V10.667H101.336Z" fill="#E3770B"/>
</g>
</svg>
