<svg width="10" height="14" viewBox="0 0 10 14" fill="none" xmlns="http://www.w3.org/2000/svg">
<path d="M0.970725 0.0471678C0.827171 0.115527 0.695335 0.249512 0.64553 0.375293C0.586936 0.512012 0.601585 0.738965 0.674827 0.87295C0.701194 0.916699 2.31545 2.31123 4.26076 3.96553C6.20608 5.61982 7.7969 6.98701 7.7969 7.00068C7.7969 7.01436 6.20608 8.38154 4.26076 10.0358C2.31545 11.6901 0.701194 13.0847 0.674827 13.1284C0.610374 13.246 0.589866 13.4784 0.633811 13.6015C0.680686 13.7327 0.818382 13.8804 0.959007 13.9487C1.10549 14.0171 1.36916 14.0171 1.52737 13.9487C1.67092 13.8858 9.23537 7.45732 9.32033 7.32334C9.36721 7.25225 9.37893 7.18389 9.37893 6.99521C9.37893 6.77646 9.37307 6.75186 9.29104 6.64522C9.1592 6.47568 1.66799 0.112793 1.52737 0.0526371C1.38088 -0.0102539 1.09377 -0.0129881 0.970725 0.0471678Z" fill="#E3770B"/>
</svg>
