<svg width="8" height="12" viewBox="0 0 8 12" fill="none" xmlns="http://www.w3.org/2000/svg">
<path d="M7.0893 6.22749C7.12278 6.17731 7.13115 6.12906 7.13115 5.99588C7.13115 5.84146 7.12697 5.82409 7.06837 5.74882C6.97421 5.62915 1.62334 1.1377 1.5229 1.09523C1.41826 1.05084 1.21319 1.04891 1.12529 1.09137C1.02276 1.13963 0.928587 1.2342 0.893012 1.32299M7.0893 6.22749L0.913939 10.3252C0.932773 10.2943 2.08581 9.30994 3.47532 8.1422C4.86483 6.97446 6.00113 6.00939 6.00113 5.99974C6.00113 5.99009 4.86483 5.02501 3.47532 3.85727C2.08581 2.68953 0.932773 1.70516 0.913939 1.67428C0.861623 1.5797 0.85116 1.4195 0.893012 1.32299M7.0893 6.22749L7.13089 6.25524C7.13098 6.25512 7.13106 6.25499 7.13114 6.25487M7.0893 6.22749L7.13138 6.2545C7.1313 6.25462 7.13122 6.25475 7.13114 6.25487M0.893012 1.32299L0.846599 1.30439C0.846686 1.30418 0.846773 1.30396 0.84686 1.30375M0.893012 1.32299L0.84714 1.3031C0.847047 1.30331 0.846953 1.30353 0.84686 1.30375M0.84686 1.30375C0.888053 1.2016 0.992118 1.09886 1.10377 1.04624C1.15823 1.02001 1.2407 1.00999 1.3183 1.01073C1.39686 1.01149 1.48159 1.02341 1.54236 1.04918C1.54932 1.05212 1.55623 1.05684 1.55965 1.05919C1.56455 1.06254 1.57049 1.06684 1.57726 1.07189C1.59087 1.08204 1.60916 1.09618 1.63164 1.11391C1.67669 1.14942 1.73961 1.2001 1.81772 1.2637C1.97401 1.39095 2.19177 1.57047 2.45043 1.78495C2.96777 2.21395 3.64907 2.78317 4.33013 3.35477C5.0112 3.92637 5.6921 4.50042 6.20866 4.93907C6.46692 5.15838 6.68418 5.34392 6.83986 5.4784C6.91768 5.54563 6.98025 5.60022 7.02491 5.63994C7.04722 5.65978 7.06525 5.67608 7.07855 5.68848C7.09047 5.69958 7.10182 5.71046 7.10767 5.7179L7.10783 5.7181C7.13748 5.7562 7.15907 5.78643 7.17021 5.8304C7.18043 5.87076 7.18115 5.92062 7.18115 5.99588C7.18115 6.12901 7.17352 6.19116 7.13114 6.25487M0.84686 1.30375C0.822046 1.36137 0.814042 1.43375 0.818256 1.50242C0.822496 1.5715 0.839473 1.64295 0.870186 1.69848L0.871213 1.70033L0.871251 1.70031C0.875259 1.70688 0.881167 1.71281 0.883151 1.7148L0.883471 1.71512C0.886897 1.71858 0.89128 1.72279 0.896373 1.72756C0.90663 1.73716 0.921011 1.7502 0.939131 1.76636C0.975438 1.79875 1.02766 1.84447 1.09394 1.90196C1.22655 2.01697 1.41599 2.1795 1.64819 2.3775C2.1126 2.77351 2.74833 3.31162 3.44315 3.89555C4.13786 4.47938 4.76925 5.01253 5.22694 5.40091C5.4558 5.59511 5.64117 5.75307 5.76931 5.86306C5.83339 5.91807 5.88306 5.96099 5.91665 5.99041C5.9204 5.9937 5.92394 5.9968 5.92726 5.99973C5.92394 6.00266 5.9204 6.00577 5.91665 6.00906C5.88306 6.03848 5.83339 6.0814 5.76931 6.13641C5.64117 6.2464 5.4558 6.40436 5.22694 6.59856C4.76925 6.98694 4.13786 7.52009 3.44315 8.10392C2.74833 8.68785 2.1126 9.22596 1.64819 9.62197C1.41599 9.81997 1.22655 9.98251 1.09394 10.0975C1.02766 10.155 0.975438 10.2007 0.939131 10.2331C0.921011 10.2493 0.90663 10.2623 0.896373 10.2719C0.89128 10.2767 0.886897 10.2809 0.883471 10.2843C0.88338 10.2844 0.883273 10.2845 0.883151 10.2847C0.881167 10.2867 0.875259 10.2926 0.871251 10.2992L0.870178 10.3009L0.870215 10.3009C0.842502 10.3509 0.826267 10.4204 0.820449 10.4863C0.814644 10.5521 0.818437 10.623 0.837619 10.6761C0.857334 10.7307 0.894787 10.7856 0.939357 10.8327C0.984109 10.88 1.03862 10.9221 1.09527 10.9493L1.09598 10.9496L1.09598 10.9496C1.15718 10.9779 1.23832 10.9904 1.31677 10.9904C1.39546 10.9904 1.47798 10.9778 1.54253 10.9502L1.54276 10.9501L1.54276 10.9501C1.54954 10.9472 1.55634 10.9425 1.55987 10.9401C1.5648 10.9367 1.5708 10.9324 1.57765 10.9272C1.5914 10.917 1.60989 10.9026 1.63262 10.8847C1.67815 10.8487 1.74172 10.7975 1.82062 10.7332C1.97846 10.6045 2.19831 10.4231 2.4593 10.2065C2.98132 9.77332 3.66831 9.19892 4.35395 8.62297C5.0396 8.04703 5.72397 7.46948 6.24076 7.02998C6.49914 6.81025 6.71572 6.62494 6.86964 6.49157C6.94658 6.42491 7.00803 6.37108 7.05127 6.33236C7.07285 6.31304 7.09015 6.29725 7.10265 6.28542C7.10887 6.27953 7.11421 6.27434 7.11842 6.27002C7.12135 6.26701 7.12704 6.26114 7.13114 6.25487" fill="white" stroke="white" stroke-width="0.1"/>
</svg>
