<svg width="16" height="16" viewBox="0 0 16 16" fill="none" xmlns="http://www.w3.org/2000/svg">
<path d="M11.1111 3.33333C11.1111 2.04467 10.0665 1 8.77778 1H7.22222C5.93356 1 4.88889 2.04467 4.88889 3.33333M6.44444 9.55556H9.55556M8 8V11.1111M4.73333 15H11.2667C12.5735 15 13.2268 15 13.726 14.7457C14.1651 14.522 14.522 14.1651 14.7457 13.726C15 13.2268 15 12.5735 15 11.2667V7.84444C15 6.53762 15 5.88426 14.7457 5.38513C14.522 4.94609 14.1651 4.58913 13.726 4.36543C13.2268 4.11111 12.5735 4.11111 11.2667 4.11111H4.73333C3.42654 4.11111 2.77315 4.11111 2.27402 4.36543C1.83498 4.58913 1.47802 4.94609 1.25432 5.38513C1 5.88426 1 6.53762 1 7.84444V11.2667C1 12.5735 1 13.2268 1.25432 13.726C1.47802 14.1651 1.83498 14.522 2.27402 14.7457C2.77315 15 3.42654 15 4.73333 15Z" stroke="#E3770B" stroke-width="1.5" stroke-linecap="round" stroke-linejoin="round"/>
</svg>
