<svg width="28" height="28" viewBox="0 0 28 28" fill="none" xmlns="http://www.w3.org/2000/svg">
<path d="M12.1307 20.1332L21.5307 10.7332L19.6641 8.8665L12.1307 16.3998L8.33073 12.5998L6.46406 14.4665L12.1307 20.1332ZM13.9974 27.3332C12.153 27.3332 10.4196 26.983 8.7974 26.2825C7.17518 25.5821 5.76406 24.6323 4.56406 23.4332C3.36406 22.2341 2.41429 20.8229 1.71473 19.1998C1.01518 17.5767 0.664953 15.8434 0.664064 13.9998C0.663175 12.1563 1.0134 10.423 1.71473 8.79984C2.41606 7.17673 3.36584 5.76562 4.56406 4.5665C5.76229 3.36739 7.1734 2.41762 8.7974 1.71717C10.4214 1.01673 12.1547 0.666504 13.9974 0.666504C15.8401 0.666504 17.5734 1.01673 19.1974 1.71717C20.8214 2.41762 22.2325 3.36739 23.4307 4.5665C24.629 5.76562 25.5792 7.17673 26.2814 8.79984C26.9836 10.423 27.3334 12.1563 27.3307 13.9998C27.3281 15.8434 26.9778 17.5767 26.2801 19.1998C25.5823 20.8229 24.6325 22.2341 23.4307 23.4332C22.229 24.6323 20.8178 25.5825 19.1974 26.2838C17.577 26.9852 15.8436 27.335 13.9974 27.3332Z" fill="#E3770B"/>
</svg>
