<svg width="14" height="16" viewBox="0 0 14 16" fill="none" xmlns="http://www.w3.org/2000/svg">
<path d="M9.58089 0.538573C9.12972 0.635253 8.69905 0.825683 8.35042 1.08642C8.05159 1.31201 4.02913 5.35205 3.87679 5.58057C3.48128 6.17236 3.32015 6.75244 3.34651 7.47607C3.37581 8.26416 3.63655 8.88525 4.17269 9.45068C4.70882 10.022 5.43245 10.3677 6.19417 10.4175L6.46077 10.4351L7.2723 9.61768C7.96956 8.91748 8.08382 8.78857 8.1014 8.69189C8.15999 8.38135 7.96663 8.13818 7.66194 8.13818C7.51546 8.13818 7.44808 8.17041 7.26644 8.32275C6.79769 8.70947 6.19417 8.74463 5.69319 8.41064C5.30355 8.14697 5.10726 7.74561 5.13362 7.25049C5.14534 7.03955 5.16292 6.97217 5.25667 6.77588C5.36507 6.55322 5.42659 6.4917 7.36605 4.55225C8.46175 3.45361 9.41976 2.51904 9.49007 2.4751C9.69808 2.34619 9.92366 2.28174 10.1698 2.27881C10.4481 2.27588 10.6619 2.3374 10.8875 2.48389C11.4383 2.84131 11.6346 3.53271 11.3534 4.12451C11.2596 4.32373 11.1922 4.40576 10.6825 4.91553L10.117 5.48682L10.4276 5.79736C10.7323 6.09912 10.9959 6.45068 11.1366 6.74365C11.1746 6.82275 11.2186 6.88428 11.2362 6.88428C11.286 6.88428 12.5018 5.64209 12.66 5.43115C13.5828 4.19482 13.4451 2.43408 12.3407 1.35596C11.9686 0.992675 11.4852 0.720214 10.9637 0.579589C10.6737 0.500487 9.87386 0.47705 9.58089 0.538573Z" fill="#626659"/>
<path d="M6.8252 6.28967C6.39453 6.72034 6.02832 7.10413 6.01074 7.13928C5.96387 7.2301 5.96973 7.45862 6.02246 7.55823C6.11328 7.73108 6.30957 7.81897 6.52051 7.78088C6.57617 7.76917 6.69043 7.70471 6.77539 7.63733C7.10645 7.37366 7.31152 7.29163 7.66309 7.29163C8.16406 7.29163 8.60059 7.56116 8.82031 8.0094C9.00781 8.38733 9.00781 8.77698 8.81738 9.16663C8.73242 9.34241 8.55371 9.53284 6.68457 11.399C5.5625 12.5211 4.58691 13.4762 4.5166 13.5201C4.30859 13.649 4.08301 13.7135 3.83691 13.7164C3.55859 13.7194 3.34473 13.6578 3.11914 13.5114C2.90234 13.3707 2.75879 13.2008 2.63281 12.9313C2.54199 12.7438 2.53613 12.7086 2.53613 12.4215C2.53613 12.1256 2.53906 12.1051 2.64746 11.8824C2.75 11.6686 2.80859 11.5983 3.35938 11.0416L3.96289 10.4352L3.67285 10.1481C3.36523 9.84045 3.18945 9.61194 2.98145 9.24866L2.85547 9.02893L2.1377 9.73499C1.66309 10.2037 1.37598 10.5143 1.28516 10.649C0.910156 11.2174 0.734375 11.7858 0.734375 12.4215C0.734375 13.8336 1.67188 15.0465 3.04297 15.4156C3.33301 15.4918 4.00977 15.5211 4.3291 15.4684C4.80078 15.3922 5.28125 15.1901 5.65625 14.9088C5.78223 14.8151 6.79297 13.8219 8 12.609C9.93066 10.6696 10.1387 10.4528 10.2529 10.2477C10.7568 9.34241 10.8799 8.42542 10.6045 7.6051C10.4346 7.09827 10.1973 6.73499 9.76367 6.32483C9.24219 5.82971 8.60645 5.55432 7.91211 5.51917L7.60449 5.50159L6.8252 6.28967Z" fill="#626659"/>
</svg>
