<svg width="24" height="28" viewBox="0 0 24 28" fill="none" xmlns="http://www.w3.org/2000/svg">
<path d="M12 14C13.8186 14 15.5628 13.2625 16.8487 11.9497C18.1347 10.637 18.8571 8.85652 18.8571 7C18.8571 5.14348 18.1347 3.36301 16.8487 2.05025C15.5628 0.737498 13.8186 0 12 0C10.1814 0 8.43723 0.737498 7.15127 2.05025C5.8653 3.36301 5.14286 5.14348 5.14286 7C5.14286 8.85652 5.8653 10.637 7.15127 11.9497C8.43723 13.2625 10.1814 14 12 14ZM6.85714 17.0188C2.89286 18.2055 0 21.9461 0 26.3758C0 27.2727 0.7125 28 1.59107 28H22.4089C23.2875 28 24 27.2727 24 26.3758C24 21.9461 21.1071 18.2055 17.1429 17.0188V19.7969C18.6214 20.1852 19.7143 21.5578 19.7143 23.1875V25.375C19.7143 25.8563 19.3286 26.25 18.8571 26.25H18C17.5286 26.25 17.1429 25.8563 17.1429 25.375C17.1429 24.8937 17.5286 24.5 18 24.5V23.1875C18 22.2195 17.2339 21.4375 16.2857 21.4375C15.3375 21.4375 14.5714 22.2195 14.5714 23.1875V24.5C15.0429 24.5 15.4286 24.8937 15.4286 25.375C15.4286 25.8563 15.0429 26.25 14.5714 26.25H13.7143C13.2429 26.25 12.8571 25.8563 12.8571 25.375V23.1875C12.8571 21.5578 13.95 20.1852 15.4286 19.7969V16.6742C15.1071 16.6414 14.7804 16.625 14.4482 16.625H9.55179C9.21964 16.625 8.89286 16.6414 8.57143 16.6742V20.2508C9.80893 20.6281 10.7143 21.7984 10.7143 23.1875C10.7143 24.8773 9.36964 26.25 7.71429 26.25C6.05893 26.25 4.71429 24.8773 4.71429 23.1875C4.71429 21.7984 5.61964 20.6281 6.85714 20.2508V17.0188ZM7.71429 24.5C8.05528 24.5 8.38231 24.3617 8.62342 24.1156C8.86454 23.8694 9 23.5356 9 23.1875C9 22.8394 8.86454 22.5056 8.62342 22.2594C8.38231 22.0133 8.05528 21.875 7.71429 21.875C7.37329 21.875 7.04627 22.0133 6.80515 22.2594C6.56403 22.5056 6.42857 22.8394 6.42857 23.1875C6.42857 23.5356 6.56403 23.8694 6.80515 24.1156C7.04627 24.3617 7.37329 24.5 7.71429 24.5Z" fill="#F4F0EC"/>
</svg>
