<svg width="16" height="20" viewBox="0 0 16 20" fill="none" xmlns="http://www.w3.org/2000/svg">
<path d="M1.85938 0.0942287C1.10938 0.359854 0.496094 0.980947 0.21875 1.75829L0.128906 2.0122V9.96142V17.9106L0.21875 18.1645C0.5 18.9497 1.12109 19.5708 1.90625 19.852L2.16016 19.9419L7.9375 19.9536C14.3867 19.9653 13.9023 19.9849 14.5234 19.6841C14.793 19.5513 14.918 19.4575 15.1875 19.1841C15.5352 18.8364 15.6953 18.5825 15.8594 18.1255L15.9492 17.8716L15.9609 11.6802C15.9688 5.69579 15.9688 5.48485 15.8945 5.37157C15.8555 5.30517 14.6953 4.07079 13.3164 2.62548L10.8086 0.000478745H6.46484H2.12109L1.85938 0.0942287ZM10.0391 2.66454C10.0508 4.09032 10.0664 4.42626 10.1133 4.57079C10.3633 5.29735 10.8555 5.79345 11.5547 6.02392C11.793 6.10204 11.9063 6.10985 13.3828 6.12548L14.9531 6.1411V11.8716C14.9531 17.5942 14.9531 17.602 14.8711 17.8442C14.6758 18.4184 14.168 18.8481 13.5586 18.9458C13.2539 18.9966 2.82422 18.9966 2.51563 18.9458C2.02344 18.8677 1.52734 18.5239 1.31641 18.1216C1.09375 17.6997 1.10938 18.2778 1.09375 10.1372C1.08984 5.39501 1.09766 2.54735 1.12109 2.3911C1.23047 1.68017 1.79297 1.09423 2.48047 0.977041C2.58203 0.961416 4.32422 0.945791 6.34766 0.941885L10.0273 0.937979L10.0391 2.66454ZM12.5742 3.33251C13.3984 4.1997 14.1172 4.95751 14.1719 5.0161L14.2695 5.12157L13.0977 5.10985L11.9258 5.09813L11.7031 4.98876C11.4258 4.85204 11.2344 4.64501 11.1289 4.35985C11.0508 4.15282 11.0469 4.06688 11.0469 2.9497C11.0469 2.29345 11.0547 1.75829 11.0625 1.75829C11.0703 1.75829 11.7539 2.46532 12.5742 3.33251Z" fill="#E3770B"/>
<path d="M7.77667 6.68005C7.5423 6.82067 7.55011 6.69958 7.53058 9.61755L7.51105 12.2972L6.53449 11.2425C5.99933 10.6644 5.51105 10.1644 5.45245 10.1332C5.31183 10.059 5.03058 10.0629 4.9212 10.141C4.73761 10.2699 4.65949 10.6136 4.76886 10.805C4.8587 10.9652 7.72199 14.0082 7.82355 14.055C7.96808 14.1215 8.11652 14.1136 8.26105 14.0316C8.33136 13.9965 9.0462 13.2582 9.85089 12.391C11.4329 10.6879 11.4212 10.7113 11.3235 10.3871C11.2923 10.2816 11.2337 10.2074 11.1517 10.1566C11.0189 10.0746 10.7376 10.0511 10.6204 10.1175C10.5814 10.1371 10.1009 10.6332 9.55792 11.2191L8.56574 12.2816L8.5462 9.60583C8.52667 7.06286 8.52277 6.93005 8.45245 6.82458C8.30402 6.60192 8.00714 6.53942 7.77667 6.68005Z" fill="#E3770B"/>
<path d="M3.92188 15.6641C3.72656 15.7266 3.54688 15.9492 3.54688 16.1328C3.54688 16.2773 3.67188 16.4883 3.79688 16.5664C3.91406 16.6367 4.07422 16.6406 8.03516 16.6406C12.0586 16.6406 12.1523 16.6406 12.2734 16.5625C12.5742 16.3789 12.5898 15.9687 12.3086 15.7539L12.168 15.6445L8.10156 15.6367C5.86328 15.6328 3.98438 15.6445 3.92188 15.6641Z" fill="#E3770B"/>
</svg>
