<svg width="266" height="86" viewBox="0 0 266 86" fill="none" xmlns="http://www.w3.org/2000/svg">
<g clip-path="url(#clip0_15_18470)">
<path d="M40.3543 24.2762C39.7929 24.2762 39.3349 23.8214 39.3275 23.2548L39.1798 1.03636C39.1724 0.469719 39.623 0 40.1917 0C40.7531 0 41.2111 0.454807 41.2185 1.02145L41.3662 23.2473C41.3662 23.814 40.9156 24.2762 40.3543 24.2837V24.2762Z" fill="white"/>
<path d="M40.7526 85.1832C40.1912 85.1832 39.7332 84.7284 39.7259 84.1618L39.5781 61.9433C39.5781 61.3767 40.0287 60.9144 40.5901 60.907C41.1515 60.907 41.6095 61.3618 41.6168 61.9284L41.7646 84.1469C41.7646 84.7135 41.314 85.1758 40.7526 85.1832Z" fill="white"/>
<path d="M80.4662 59.6242C80.2668 60.1536 79.6758 60.422 79.1514 60.2207L58.5869 52.2876C58.0625 52.0863 57.7965 51.4899 57.996 50.9605C58.1954 50.4311 58.7864 50.1627 59.3108 50.364L79.8753 58.2971C80.3997 58.4984 80.6656 59.0948 80.4662 59.6242Z" fill="white"/>
<path d="M56.5159 32.6119C56.1687 32.1645 56.2426 31.5233 56.6784 31.1654L73.9263 17.3497C74.3695 16.9993 75.0047 17.0739 75.3593 17.5138C75.7064 17.9611 75.6326 18.6023 75.1968 18.9602L57.9489 32.7759C57.5057 33.1263 56.8705 33.0518 56.5159 32.6119Z" fill="white"/>
<path d="M45.048 23.881C44.494 23.7617 44.1173 23.3591 44.1985 22.9714L47.36 8.05226C47.4413 7.67201 47.9509 7.45579 48.5049 7.57508C49.0589 7.69438 49.4357 8.09699 49.3544 8.47724L46.1929 23.3964C46.1117 23.7766 45.602 23.9929 45.048 23.8736V23.881Z" fill="white"/>
<path d="M49.3784 25.1561C48.8613 24.9324 48.5659 24.4552 48.721 24.0973L54.7411 10.1027C54.8962 9.74481 55.4355 9.64043 55.9525 9.8641C56.4696 10.0878 56.7651 10.565 56.6099 10.9228L50.5898 24.9175C50.4347 25.2753 49.8955 25.3797 49.3784 25.1561Z" fill="white"/>
<path d="M53.4819 28.0562C53.0165 27.7356 52.8171 27.2137 53.0313 26.8931L61.5555 14.2927C61.7771 13.9721 62.3237 13.9721 62.789 14.2927C63.2544 14.6133 63.4538 15.1352 63.2396 15.4558L54.7154 28.0562C54.4938 28.3768 53.9472 28.3768 53.4819 28.0562Z" fill="white"/>
<path d="M59.005 37.1C58.7686 36.5856 58.8646 36.0338 59.2118 35.8698L72.9288 29.4652C73.276 29.3012 73.7561 29.5845 73.9925 30.099C74.2289 30.6134 74.1329 31.1652 73.7857 31.3292L60.0687 37.7338C59.7215 37.8978 59.2414 37.6145 59.005 37.1Z" fill="white"/>
<path d="M59.7406 41.723C59.6446 41.1638 59.8736 40.6568 60.2503 40.5897L75.1344 37.9503C75.5185 37.8832 75.9026 38.2783 75.9987 38.845C76.0947 39.4042 75.8657 39.9112 75.489 39.9783L60.6049 42.6177C60.2208 42.6848 59.8367 42.2896 59.7406 41.723Z" fill="white"/>
<path d="M59.3052 47.2927C59.3126 46.726 59.6376 46.2712 60.0217 46.2787L75.1348 46.5247C75.5189 46.5247 75.8291 46.9944 75.8144 47.5685C75.7996 48.1426 75.482 48.59 75.0979 48.5825L59.9848 48.3365C59.6007 48.3365 59.2904 47.8668 59.3052 47.2927Z" fill="white"/>
<path d="M55.6681 55.2328C56.067 54.8376 56.6136 54.7332 56.8869 55.0166L67.4868 65.8947C67.7601 66.1705 67.6493 66.7223 67.2504 67.1174C66.8515 67.5126 66.3049 67.617 66.0316 67.3336L55.4317 56.4555C55.1584 56.1797 55.2692 55.6279 55.6681 55.2328Z" fill="white"/>
<path d="M51.9437 59.1471C52.4386 58.8712 52.9852 58.9309 53.1773 59.2738L60.4605 72.6422C60.6452 72.9851 60.4015 73.4847 59.9065 73.7531C59.4116 74.029 58.865 73.9693 58.673 73.6263L51.3897 60.258C51.2051 59.915 51.4488 59.4155 51.9437 59.1471Z" fill="white"/>
<path d="M46.8917 61.8089C47.4383 61.6896 47.9554 61.8984 48.0367 62.2787L51.2351 77.1903C51.3163 77.5706 50.9396 77.9807 50.3856 78.1C49.839 78.2193 49.3219 78.0105 49.2407 77.6302L46.0423 62.7185C45.961 62.3383 46.3377 61.9282 46.8917 61.8089Z" fill="white"/>
<path d="M0.0723403 60.8545C0.279167 61.3839 0.870099 61.6374 1.39455 61.4286L21.8556 53.2198C22.38 53.011 22.6312 52.4145 22.4244 51.8852C22.2175 51.3558 21.6266 51.1023 21.1022 51.3111L0.641113 59.5199C0.11666 59.7287 -0.134486 60.3252 0.0723403 60.8545Z" fill="white"/>
<path d="M23.6463 32.7013C23.9935 32.2539 23.9048 31.6053 23.4616 31.2549L6.0365 17.6777C5.5933 17.3273 4.95066 17.4168 4.60349 17.8641C4.25632 18.3115 4.34496 18.9602 4.78816 19.3106L22.2133 32.8951C22.6565 33.2456 23.2991 33.1561 23.6463 32.7087V32.7013Z" fill="white"/>
<path d="M35.0027 23.814C35.5494 23.6873 35.9261 23.2772 35.8374 22.897L32.4765 8.02256C32.3879 7.64231 31.8782 7.43355 31.3242 7.5603C30.7776 7.68705 30.4009 8.09712 30.4895 8.47736L33.8504 23.3518C33.9391 23.732 34.4487 23.9408 35.0027 23.814Z" fill="white"/>
<path d="M30.6928 25.1412C31.2098 24.9101 31.4905 24.4329 31.3354 24.075L25.1306 10.1624C24.9755 9.80451 24.4289 9.70758 23.9118 9.93871C23.3947 10.1698 23.1141 10.647 23.2692 11.0049L29.474 24.9175C29.6291 25.2754 30.1757 25.3723 30.6928 25.1412Z" fill="white"/>
<path d="M26.6328 28.1011C27.0908 27.7731 27.2902 27.2512 27.0612 26.9306L18.3745 14.4495C18.1529 14.1289 17.5989 14.1363 17.1409 14.4644C16.683 14.7925 16.4835 15.3144 16.7125 15.635L25.3992 28.1161C25.6208 28.4367 26.1748 28.4292 26.6328 28.1011Z" fill="white"/>
<path d="M21.2237 37.2193C21.4527 36.6974 21.3566 36.1531 21.0021 35.9891L7.2038 29.7709C6.84924 29.6143 6.3765 29.9051 6.14751 30.4196C5.91853 30.9415 6.01455 31.4857 6.36911 31.6498L20.1674 37.868C20.5219 38.0245 20.9947 37.7337 21.2237 37.2193Z" fill="white"/>
<path d="M20.5475 41.8495C20.6362 41.2904 20.3998 40.7834 20.0231 40.7237L5.10204 38.2856C4.71794 38.226 4.34122 38.6286 4.24519 39.1878C4.15655 39.747 4.39292 40.254 4.76964 40.3136L19.6907 42.7517C20.0748 42.8113 20.4515 42.4087 20.5475 41.8495Z" fill="white"/>
<path d="M21.0566 47.4117C21.0418 46.845 20.7168 46.3902 20.3253 46.4051L5.21958 46.8599C4.83547 46.8749 4.53262 47.3446 4.54739 47.9112C4.56217 48.4779 4.88718 48.9327 5.27867 48.9178L20.3844 48.463C20.7685 48.448 21.0713 47.9783 21.0566 47.4117Z" fill="white"/>
<path d="M24.8077 56.948C24.4014 56.5528 23.8548 56.4634 23.5889 56.7467L13.1368 67.7664C12.8708 68.0497 12.9816 68.594 13.3879 68.9892C13.7942 69.3843 14.3408 69.4738 14.6067 69.1905L25.0588 58.1707C25.3247 57.8874 25.2139 57.3431 24.8077 56.948Z" fill="white"/>
<path d="M29.4544 60.0791C28.9595 59.8107 28.4055 59.8778 28.2282 60.2208L21.1222 73.6861C20.9376 74.029 21.1961 74.5286 21.691 74.7895C22.1859 75.0579 22.7399 74.9908 22.9172 74.6479L30.0232 61.1826C30.2078 60.8396 29.9493 60.3401 29.4544 60.0791Z" fill="white"/>
<path d="M35.2941 62.5768C34.7401 62.465 34.2304 62.6812 34.1565 63.0615L31.1575 78.0104C31.0837 78.3907 31.4678 78.7933 32.0144 78.9051C32.5684 79.017 33.0781 78.8008 33.1519 78.4205L36.1509 63.4715C36.2248 63.0913 35.8407 62.6887 35.2941 62.5768Z" fill="white"/>
<path d="M39.4062 37.6223V46.9794L45.0718 33.4619" stroke="white" stroke-width="1.54878" stroke-linecap="round" stroke-linejoin="round"/>
</g>
<path d="M90.9026 31.6723L93.1402 31.3075V13.6013L90.9026 13.2608V12.7257H98.3207C100.072 12.7257 101.466 12.8878 102.504 13.2121C103.542 13.5364 104.296 14.031 104.766 14.6958C105.236 15.3443 105.471 16.2037 105.471 17.2739C105.471 19.6088 103.996 21.1005 101.045 21.7491V21.8707C102.845 22.1139 104.239 22.649 105.228 23.4759C106.233 24.3029 106.736 25.4541 106.736 26.9296C106.736 28.7132 106.079 30.0347 104.766 30.8941C103.469 31.7534 101.71 32.1831 99.4881 32.1831H90.9026V31.6723ZM98.5153 21.6761C99.8124 21.6761 100.81 21.3113 101.507 20.5816C102.204 19.852 102.553 18.8142 102.553 17.4684V17.3225C102.553 14.6633 101.142 13.3337 98.3207 13.3337H95.8156V21.6761H98.5153ZM99.4881 31.5994C100.866 31.5994 101.937 31.2021 102.699 30.4076C103.461 29.5969 103.842 28.4457 103.842 26.9539V26.6864C103.842 25.2109 103.461 24.1083 102.699 23.3786C101.953 22.649 100.883 22.2841 99.4881 22.2841H95.8156V31.5994H99.4881ZM108.563 38.5797L110.266 38.3365V20.3384L108.563 20.0952V19.6088H112.698V22.1625C113.103 21.287 113.646 20.6059 114.327 20.1195C115.024 19.6169 115.851 19.3655 116.808 19.3655C117.959 19.3655 118.973 19.6412 119.848 20.1925C120.724 20.7276 121.405 21.4896 121.891 22.4787C122.378 23.4516 122.621 24.5947 122.621 25.9081C122.621 27.2215 122.378 28.3727 121.891 29.3618C121.405 30.3347 120.724 31.0886 119.848 31.6237C118.973 32.1588 117.959 32.4263 116.808 32.4263C115.851 32.4263 115.024 32.1831 114.327 31.6967C113.646 31.194 113.103 30.513 112.698 29.6536V38.3365L114.984 38.5797V39.0662H108.563V38.5797ZM116.565 31.8183C118.819 31.8183 119.946 30.2536 119.946 27.1242V24.692C119.946 21.5464 118.819 19.9736 116.565 19.9736C115.851 19.9736 115.203 20.1844 114.619 20.6059C114.035 21.0113 113.573 21.5626 113.233 22.2598C112.892 22.957 112.714 23.711 112.698 24.5217V27.1242C112.698 27.9511 112.86 28.7294 113.184 29.4591C113.525 30.1725 113.987 30.7481 114.57 31.1859C115.17 31.6075 115.835 31.8183 116.565 31.8183ZM131.124 32.4263C129.924 32.4263 128.838 32.1588 127.865 31.6237C126.892 31.0724 126.122 30.3022 125.554 29.3131C124.987 28.3241 124.703 27.1809 124.703 25.8838C124.703 24.5866 124.979 23.4516 125.53 22.4787C126.097 21.4896 126.851 20.7276 127.792 20.1925C128.748 19.6412 129.811 19.3655 130.978 19.3655C132 19.3655 132.916 19.5925 133.726 20.0465C134.537 20.5006 135.169 21.1329 135.623 21.9436C136.077 22.7382 136.313 23.6543 136.329 24.692H127.378V27.0999C127.378 28.5267 127.695 29.6861 128.327 30.5779C128.975 31.4535 129.908 31.8912 131.124 31.8912C132.243 31.8912 133.232 31.5751 134.091 30.9427C134.951 30.3103 135.478 29.4915 135.672 28.4862H136.231C136.004 29.6861 135.429 30.6427 134.505 31.3562C133.58 32.0696 132.454 32.4263 131.124 32.4263ZM133.653 24.084C133.653 22.6733 133.434 21.6275 132.997 20.9464C132.559 20.2492 131.878 19.9006 130.954 19.9006C129.867 19.9006 129.024 20.2817 128.424 21.0437C127.824 21.8058 127.484 22.8192 127.403 24.084H133.653ZM137.947 32.1831V31.6967L139.796 30.967V20.2898L138.093 20.0709V19.5844H142.812L146.655 28.6808L150.473 19.5844H154.948V20.0709L153.246 20.3141V31.4535L154.948 31.6967V32.1831H149.354V31.6967L150.814 31.4535V20.387L145.779 32.1831H145.487L140.404 20.387V30.967L142.252 31.6967V32.1831H137.947ZM157.695 32.4263C157.29 32.4263 156.876 32.3371 156.454 32.1588C156.033 31.9642 155.668 31.6886 155.36 31.3318L155.725 30.967C156.017 31.2589 156.3 31.4048 156.576 31.4048C156.819 31.4048 156.998 31.3156 157.111 31.1373C157.241 30.9589 157.362 30.6022 157.476 30.0671L157.744 28.6564C157.889 27.8619 158.157 27.2701 158.546 26.881C158.935 26.4918 159.568 26.2324 160.443 26.1027V25.9811C159.584 25.8351 158.879 25.5189 158.327 25.0325C157.792 24.5461 157.525 23.8326 157.525 22.8922C157.525 21.8058 157.889 20.987 158.619 20.4357C159.349 19.8682 160.532 19.5844 162.17 19.5844H169.126V20.0952L167.375 20.3384V31.4291L169.126 31.6967V32.1831H163.192V31.6967L164.943 31.4291V26.3945H162.705C162.008 26.3945 161.465 26.5486 161.076 26.8566C160.703 27.1647 160.459 27.6755 160.346 28.3889L159.981 30.4563C159.851 31.1697 159.616 31.6805 159.276 31.9885C158.935 32.2804 158.408 32.4263 157.695 32.4263ZM164.943 25.7865V20.1925H162.9C161.959 20.1925 161.262 20.4033 160.808 20.8248C160.37 21.2464 160.151 21.9193 160.151 22.8435V23.1597C160.151 24.0677 160.378 24.7325 160.832 25.1541C161.286 25.5757 161.911 25.7865 162.705 25.7865H164.943ZM90.9026 60.6723L93.1402 60.3075V42.6013L90.9026 42.2608V41.7257H98.3207C100.072 41.7257 101.466 41.8878 102.504 42.2121C103.542 42.5364 104.296 43.031 104.766 43.6958C105.236 44.3443 105.471 45.2037 105.471 46.2739C105.471 48.6088 103.996 50.1005 101.045 50.7491V50.8707C102.845 51.1139 104.239 51.649 105.228 52.4759C106.233 53.3029 106.736 54.4541 106.736 55.9296C106.736 57.7132 106.079 59.0347 104.766 59.8941C103.469 60.7534 101.71 61.1831 99.4881 61.1831H90.9026V60.6723ZM98.5153 50.6761C99.8124 50.6761 100.81 50.3113 101.507 49.5816C102.204 48.852 102.553 47.8142 102.553 46.4684V46.3225C102.553 43.6633 101.142 42.3337 98.3207 42.3337H95.8156V50.6761H98.5153ZM99.4881 60.5994C100.866 60.5994 101.937 60.2021 102.699 59.4076C103.461 58.5969 103.842 57.4457 103.842 55.9539V55.6864C103.842 54.2109 103.461 53.1083 102.699 52.3786C101.953 51.649 100.883 51.2841 99.4881 51.2841H95.8156V60.5994H99.4881ZM115.397 61.4263C114.23 61.4263 113.168 61.1588 112.211 60.6237C111.255 60.0724 110.493 59.3022 109.925 58.3131C109.374 57.3078 109.098 56.1647 109.098 54.8838C109.098 53.6028 109.374 52.4678 109.925 51.4787C110.493 50.4896 111.255 49.7276 112.211 49.1925C113.168 48.6412 114.23 48.3655 115.397 48.3655C116.565 48.3655 117.627 48.6412 118.584 49.1925C119.54 49.7276 120.294 50.4896 120.846 51.4787C121.413 52.4678 121.697 53.6028 121.697 54.8838C121.697 56.1647 121.413 57.3078 120.846 58.3131C120.294 59.3022 119.54 60.0724 118.584 60.6237C117.627 61.1588 116.565 61.4263 115.397 61.4263ZM115.397 60.8912C116.597 60.8912 117.497 60.4535 118.097 59.5779C118.713 58.7023 119.021 57.5429 119.021 56.0999V53.6677C119.021 52.2246 118.713 51.0734 118.097 50.214C117.497 49.3384 116.597 48.9006 115.397 48.9006C114.198 48.9006 113.29 49.3384 112.673 50.214C112.073 51.0734 111.773 52.2246 111.773 53.6677V56.0999C111.773 57.5429 112.073 58.7023 112.673 59.5779C113.29 60.4535 114.198 60.8912 115.397 60.8912ZM128.787 61.4263C126.987 61.4263 125.674 61.175 124.847 60.6723C124.036 60.1535 123.631 59.5049 123.631 58.7266C123.631 58.2402 123.769 57.851 124.044 57.5592C124.336 57.2511 124.717 57.097 125.187 57.097C125.495 57.097 125.771 57.1781 126.014 57.3403C126.257 57.5024 126.428 57.7294 126.525 58.0213C126.249 58.3456 126.112 58.6861 126.112 59.0428C126.112 59.5941 126.355 60.0562 126.841 60.4291C127.344 60.7858 127.992 60.9642 128.787 60.9642C129.76 60.9642 130.538 60.7129 131.122 60.2102C131.722 59.6914 132.022 58.9374 132.022 57.9483V57.6321C132.022 56.7403 131.689 56.0593 131.025 55.5891C130.376 55.1027 129.565 54.8594 128.592 54.8594H127.23V54.2757H128.592C129.517 54.2757 130.222 54.0568 130.708 53.619C131.195 53.165 131.438 52.5083 131.438 51.649V51.5517C131.438 49.7357 130.579 48.8276 128.86 48.8276C127.936 48.8276 127.084 49.0547 126.306 49.5087L124.847 52.9867H124.336L124.604 48.3655L126.063 49.0709C126.971 48.6006 127.919 48.3655 128.909 48.3655C130.725 48.3655 132.038 48.6331 132.849 49.1682C133.659 49.687 134.065 50.4734 134.065 51.5274C134.065 52.2894 133.781 52.9218 133.214 53.4245C132.662 53.9271 131.827 54.2676 130.708 54.446V54.4703C132.022 54.6 133.003 54.9486 133.651 55.5161C134.316 56.0836 134.648 56.8376 134.648 57.7781C134.648 58.9293 134.162 59.8292 133.189 60.4778C132.216 61.1101 130.749 61.4263 128.787 61.4263ZM136.186 67.5797L137.889 67.3365V49.3384L136.186 49.0952V48.6088H140.321V51.1625C140.726 50.287 141.27 49.6059 141.951 49.1195C142.648 48.6169 143.475 48.3655 144.431 48.3655C145.583 48.3655 146.596 48.6412 147.472 49.1925C148.347 49.7276 149.028 50.4896 149.515 51.4787C150.001 52.4516 150.244 53.5947 150.244 54.9081C150.244 56.2215 150.001 57.3727 149.515 58.3618C149.028 59.3347 148.347 60.0886 147.472 60.6237C146.596 61.1588 145.583 61.4263 144.431 61.4263C143.475 61.4263 142.648 61.1831 141.951 60.6967C141.27 60.194 140.726 59.513 140.321 58.6536V67.3365L142.607 67.5797V68.0662H136.186V67.5797ZM144.188 60.8183C146.442 60.8183 147.569 59.2536 147.569 56.1242V53.692C147.569 50.5464 146.442 48.9736 144.188 48.9736C143.475 48.9736 142.826 49.1844 142.242 49.6059C141.659 50.0113 141.197 50.5626 140.856 51.2598C140.516 51.957 140.337 52.711 140.321 53.5217V56.1242C140.321 56.9511 140.483 57.7294 140.807 58.4591C141.148 59.1725 141.61 59.7481 142.194 60.1859C142.794 60.6075 143.458 60.8183 144.188 60.8183ZM158.626 61.4263C157.458 61.4263 156.396 61.1588 155.439 60.6237C154.483 60.0724 153.721 59.3022 153.153 58.3131C152.602 57.3078 152.326 56.1647 152.326 54.8838C152.326 53.6028 152.602 52.4678 153.153 51.4787C153.721 50.4896 154.483 49.7276 155.439 49.1925C156.396 48.6412 157.458 48.3655 158.626 48.3655C159.793 48.3655 160.855 48.6412 161.812 49.1925C162.768 49.7276 163.522 50.4896 164.074 51.4787C164.641 52.4678 164.925 53.6028 164.925 54.8838C164.925 56.1647 164.641 57.3078 164.074 58.3131C163.522 59.3022 162.768 60.0724 161.812 60.6237C160.855 61.1588 159.793 61.4263 158.626 61.4263ZM158.626 60.8912C159.825 60.8912 160.725 60.4535 161.325 59.5779C161.941 58.7023 162.25 57.5429 162.25 56.0999V53.6677C162.25 52.2246 161.941 51.0734 161.325 50.214C160.725 49.3384 159.825 48.9006 158.626 48.9006C157.426 48.9006 156.518 49.3384 155.902 50.214C155.302 51.0734 155.002 52.2246 155.002 53.6677V56.0999C155.002 57.5429 155.302 58.7023 155.902 59.5779C156.518 60.4535 157.426 60.8912 158.626 60.8912ZM168.172 61.475C167.767 61.475 167.353 61.3777 166.932 61.1831C166.51 61.0047 166.145 60.7372 165.837 60.3805L166.202 60.0157C166.494 60.3075 166.778 60.4535 167.053 60.4535C167.297 60.4535 167.483 60.3643 167.613 60.1859C167.743 59.9913 167.856 59.6346 167.953 59.1158L168.367 56.9754C168.513 56.1161 168.829 55.4756 169.315 55.054C169.818 54.6324 170.604 54.373 171.675 54.2757C171.318 53.9514 171.05 53.4164 170.872 52.6705L170.41 50.9193C170.28 50.4653 170.021 50.2383 169.632 50.2383C169.437 50.2383 169.275 50.3113 169.145 50.4572C169.015 50.6031 168.951 50.7815 168.951 50.9923C168.951 51.122 168.975 51.2598 169.024 51.4058C168.797 51.4868 168.561 51.5274 168.318 51.5274C167.864 51.5274 167.499 51.3814 167.224 51.0896C166.964 50.7815 166.835 50.4167 166.835 49.9951C166.835 49.5411 166.997 49.16 167.321 48.852C167.645 48.5277 168.099 48.3655 168.683 48.3655C169.38 48.3655 169.891 48.5682 170.215 48.9736C170.556 49.3627 170.823 49.9546 171.018 50.7491L171.456 52.5002C171.602 53.1002 171.796 53.5299 172.039 53.7893C172.283 54.0487 172.607 54.1947 173.012 54.2271H175.08V49.3384L173.328 49.0952V48.5844H179.263V49.0952L177.512 49.3384V54.2271H179.531C179.936 54.2109 180.26 54.073 180.503 53.8136C180.763 53.5542 180.974 53.1164 181.136 52.5002L181.574 50.7491C181.768 49.9546 182.028 49.3627 182.352 48.9736C182.692 48.5682 183.211 48.3655 183.908 48.3655C184.492 48.3655 184.946 48.5277 185.27 48.852C185.595 49.16 185.757 49.5411 185.757 49.9951C185.757 50.4167 185.619 50.7815 185.343 51.0896C185.084 51.3814 184.727 51.5274 184.273 51.5274C184.03 51.5274 183.795 51.4868 183.568 51.4058C183.617 51.2598 183.641 51.122 183.641 50.9923C183.641 50.7815 183.576 50.6031 183.446 50.4572C183.317 50.3113 183.154 50.2383 182.96 50.2383C182.571 50.2383 182.311 50.4653 182.182 50.9193L181.719 52.6705C181.541 53.4001 181.265 53.9352 180.893 54.2757C181.963 54.373 182.749 54.6324 183.252 55.054C183.754 55.4756 184.079 56.1161 184.225 56.9754L184.638 59.1158C184.735 59.6346 184.849 59.9913 184.979 60.1859C185.108 60.3643 185.295 60.4535 185.538 60.4535C185.814 60.4535 186.097 60.3075 186.389 60.0157L186.754 60.3805C186.446 60.7372 186.081 61.0047 185.66 61.1831C185.238 61.3777 184.825 61.475 184.419 61.475C183.706 61.475 183.179 61.329 182.838 61.0372C182.498 60.7291 182.263 60.2183 182.133 59.5049L181.647 56.8782C181.501 56.0836 181.249 55.5405 180.893 55.2486C180.536 54.9405 180.041 54.7865 179.409 54.7865H177.512V60.4291L179.263 60.6967V61.1831H173.328V60.6967L175.08 60.4291V54.7865H173.061C172.461 54.8027 171.991 54.9648 171.65 55.2729C171.31 55.581 171.075 56.1161 170.945 56.8782L170.458 59.5049C170.329 60.2183 170.094 60.7291 169.753 61.0372C169.413 61.329 168.886 61.475 168.172 61.475ZM199.586 65.1962H198.905L196.765 61.1831H188.934L186.818 65.1962H186.137L186.501 60.5751H187.28C187.636 60.5751 187.985 60.421 188.325 60.1129C188.666 59.8049 188.966 59.359 189.225 58.7753C189.452 58.2402 189.631 57.5754 189.76 56.7809C189.906 55.9864 190.036 54.7378 190.15 53.0353L190.344 50.1167L188.131 49.0709V48.5844H199.197V49.0709L197.495 49.3141V60.5751H199.222L199.586 65.1962ZM195.063 49.1925H191.025L190.758 53.0353C190.644 54.7541 190.514 56.0269 190.369 56.8538C190.223 57.6646 190.044 58.3456 189.833 58.8969C189.687 59.2536 189.525 59.5617 189.347 59.8211C189.185 60.0643 189.039 60.2427 188.909 60.3562C188.796 60.4697 188.723 60.5426 188.69 60.5751H195.063V49.1925ZM207.224 61.4263C206.025 61.4263 204.938 61.1588 203.965 60.6237C202.992 60.0724 202.222 59.3022 201.655 58.3131C201.087 57.3241 200.803 56.1809 200.803 54.8838C200.803 53.5866 201.079 52.4516 201.63 51.4787C202.198 50.4896 202.952 49.7276 203.892 49.1925C204.849 48.6412 205.911 48.3655 207.079 48.3655C208.1 48.3655 209.016 48.5925 209.827 49.0465C210.638 49.5006 211.27 50.1329 211.724 50.9436C212.178 51.7382 212.413 52.6543 212.429 53.692H203.479V56.0999C203.479 57.5267 203.795 58.6861 204.427 59.5779C205.076 60.4535 206.008 60.8912 207.224 60.8912C208.343 60.8912 209.332 60.5751 210.192 59.9427C211.051 59.3103 211.578 58.4915 211.773 57.4862H212.332C212.105 58.6861 211.529 59.6427 210.605 60.3562C209.681 61.0696 208.554 61.4263 207.224 61.4263ZM209.754 53.084C209.754 51.6733 209.535 50.6275 209.097 49.9464C208.659 49.2492 207.978 48.9006 207.054 48.9006C205.968 48.9006 205.125 49.2817 204.525 50.0437C203.925 50.8058 203.584 51.8192 203.503 53.084H209.754ZM214.048 61.1831V60.6967L215.75 60.4535V49.3141L214.048 49.0709V48.5844H219.642V49.0709L218.183 49.3141V54.4946H224.19V49.3141L222.731 49.0709V48.5844H228.325V49.0709L226.622 49.3141V60.4535L228.325 60.6967V61.1831H222.731V60.6967L224.19 60.4535V55.1027H218.183V60.4535L219.642 60.6967V61.1831H214.048ZM229.629 61.1831V60.6967L231.332 60.4535V49.3141L229.629 49.0709V48.5844H235.223V49.0709L233.764 49.3141V58.7753L239.917 49.8005V49.3141L238.458 49.0709V48.5844H244.052V49.0709L242.349 49.3141V60.4535L244.052 60.6967V61.1831H238.458V60.6967L239.917 60.4535V50.822L233.764 59.8211V60.4535L235.223 60.6967V61.1831H229.629ZM246.811 61.4263C246.406 61.4263 245.993 61.3371 245.571 61.1588C245.149 60.9642 244.785 60.6886 244.476 60.3318L244.841 59.967C245.133 60.2589 245.417 60.4048 245.693 60.4048C245.936 60.4048 246.114 60.3156 246.228 60.1373C246.357 59.9589 246.479 59.6022 246.592 59.0671L246.86 57.6564C247.006 56.8619 247.273 56.2701 247.663 55.881C248.052 55.4918 248.684 55.2324 249.56 55.1027V54.9811C248.7 54.8351 247.995 54.5189 247.444 54.0325C246.909 53.5461 246.641 52.8326 246.641 51.8922C246.641 50.8058 247.006 49.987 247.736 49.4357C248.465 48.8682 249.649 48.5844 251.287 48.5844H258.243V49.0952L256.491 49.3384V60.4291L258.243 60.6967V61.1831H252.308V60.6967L254.059 60.4291V55.3945H251.822C251.124 55.3945 250.581 55.5486 250.192 55.8566C249.819 56.1647 249.576 56.6755 249.462 57.3889L249.098 59.4563C248.968 60.1697 248.733 60.6805 248.392 60.9885C248.052 61.2804 247.525 61.4263 246.811 61.4263ZM254.059 54.7865V49.1925H252.016C251.076 49.1925 250.379 49.4033 249.925 49.8248C249.487 50.2464 249.268 50.9193 249.268 51.8435V52.1597C249.268 53.0677 249.495 53.7325 249.949 54.1541C250.403 54.5757 251.027 54.7865 251.822 54.7865H254.059Z" fill="white"/>
<path opacity="0.5" d="M97.6505 72.6044H98.5452V81.1831H97.6505V72.6044ZM92.2827 81.1831H91.3758V72.6044H92.2827V81.1831ZM97.7363 77.2246H92.1847V76.4281H97.7363V77.2246ZM105.228 81.1831V79.7615L105.191 79.5286V77.1511C105.191 76.6037 105.036 76.183 104.725 75.8888C104.423 75.5947 103.97 75.4476 103.365 75.4476C102.948 75.4476 102.552 75.5171 102.176 75.656C101.8 75.7949 101.482 75.9787 101.22 76.2075L100.828 75.5579C101.155 75.2801 101.547 75.0677 102.005 74.9207C102.462 74.7654 102.944 74.6878 103.451 74.6878C104.284 74.6878 104.926 74.8961 105.375 75.3128C105.832 75.7213 106.061 76.3464 106.061 77.1879V81.1831H105.228ZM103.01 81.2444C102.528 81.2444 102.107 81.1668 101.747 81.0115C101.396 80.8481 101.126 80.6275 100.938 80.3497C100.751 80.0638 100.657 79.737 100.657 79.3693C100.657 79.0343 100.734 78.732 100.889 78.4624C101.053 78.1846 101.314 77.9641 101.674 77.8006C102.041 77.6291 102.532 77.5433 103.144 77.5433H105.363V78.1928H103.169C102.548 78.1928 102.115 78.3031 101.87 78.5237C101.633 78.7443 101.514 79.018 101.514 79.3448C101.514 79.7125 101.657 80.0066 101.943 80.2272C102.229 80.4478 102.63 80.5581 103.144 80.5581C103.635 80.5581 104.055 80.4478 104.407 80.2272C104.766 79.9984 105.028 79.6716 105.191 79.2468L105.387 79.8473C105.224 80.2721 104.938 80.6112 104.529 80.8645C104.129 81.1177 103.622 81.2444 103.01 81.2444ZM111.699 81.2444C111.143 81.2444 110.641 81.1177 110.191 80.8645C109.742 80.603 109.382 80.2313 109.113 79.7492C108.851 79.259 108.721 78.6626 108.721 77.96C108.721 77.2573 108.851 76.665 109.113 76.183C109.374 75.6927 109.73 75.321 110.179 75.0677C110.628 74.8144 111.135 74.6878 111.699 74.6878C112.311 74.6878 112.859 74.8267 113.341 75.1045C113.831 75.3741 114.215 75.7581 114.493 76.2565C114.771 76.7467 114.91 77.3145 114.91 77.96C114.91 78.6136 114.771 79.1855 114.493 79.6757C114.215 80.1659 113.831 80.5499 113.341 80.8277C112.859 81.1055 112.311 81.2444 111.699 81.2444ZM108.378 83.5606V74.7491H109.211V76.6854L109.125 77.9722L109.248 79.2713V83.5606H108.378ZM111.637 80.4723C112.095 80.4723 112.503 80.3702 112.863 80.1659C113.222 79.9535 113.508 79.6594 113.721 79.2835C113.933 78.8995 114.039 78.4583 114.039 77.96C114.039 77.4616 113.933 77.0245 113.721 76.6487C113.508 76.2728 113.222 75.9787 112.863 75.7663C112.503 75.5538 112.095 75.4476 111.637 75.4476C111.18 75.4476 110.767 75.5538 110.4 75.7663C110.04 75.9787 109.754 76.2728 109.542 76.6487C109.338 77.0245 109.235 77.4616 109.235 77.96C109.235 78.4583 109.338 78.8995 109.542 79.2835C109.754 79.6594 110.04 79.9535 110.4 80.1659C110.767 80.3702 111.18 80.4723 111.637 80.4723ZM121.497 81.1831L118.85 77.9967L119.573 77.5678L122.527 81.1831H121.497ZM116.779 81.1831V74.7491H117.649V81.1831H116.779ZM117.38 78.3154V77.5678H119.451V78.3154H117.38ZM119.647 78.058L118.838 77.9355L121.399 74.7491H122.343L119.647 78.058ZM126.32 81.2444C125.699 81.2444 125.139 81.1055 124.641 80.8277C124.151 80.5417 123.763 80.1537 123.477 79.6635C123.191 79.1651 123.048 78.5972 123.048 77.96C123.048 77.3145 123.191 76.7467 123.477 76.2565C123.763 75.7663 124.151 75.3823 124.641 75.1045C125.131 74.8267 125.691 74.6878 126.32 74.6878C126.957 74.6878 127.521 74.8267 128.011 75.1045C128.509 75.3823 128.898 75.7663 129.175 76.2565C129.461 76.7467 129.604 77.3145 129.604 77.96C129.604 78.5972 129.461 79.1651 129.175 79.6635C128.898 80.1537 128.509 80.5417 128.011 80.8277C127.513 81.1055 126.949 81.2444 126.32 81.2444ZM126.32 80.4723C126.786 80.4723 127.198 80.3702 127.558 80.1659C127.917 79.9535 128.199 79.6594 128.403 79.2835C128.616 78.8995 128.722 78.4583 128.722 77.96C128.722 77.4534 128.616 77.0122 128.403 76.6364C128.199 76.2606 127.917 75.9705 127.558 75.7663C127.198 75.5538 126.79 75.4476 126.332 75.4476C125.875 75.4476 125.466 75.5538 125.107 75.7663C124.747 75.9705 124.461 76.2606 124.249 76.6364C124.036 77.0122 123.93 77.4534 123.93 77.96C123.93 78.4583 124.036 78.8995 124.249 79.2835C124.461 79.6594 124.747 79.9535 125.107 80.1659C125.466 80.3702 125.87 80.4723 126.32 80.4723ZM130.251 81.1709L130.313 80.4233C130.37 80.4314 130.423 80.4437 130.472 80.46C130.529 80.4682 130.578 80.4723 130.619 80.4723C130.881 80.4723 131.089 80.3743 131.244 80.1782C131.408 79.9821 131.53 79.7206 131.612 79.3938C131.694 79.067 131.751 78.6994 131.783 78.2909C131.816 77.8742 131.845 77.4575 131.869 77.0408L131.979 74.7491H136.698V81.1831H135.828V75.2515L136.048 75.5089H132.543L132.752 75.2393L132.654 77.1021C132.629 77.6577 132.584 78.1887 132.519 78.6953C132.462 79.2018 132.368 79.6471 132.237 80.0311C132.114 80.4151 131.943 80.7174 131.722 80.938C131.502 81.1504 131.22 81.2566 130.876 81.2566C130.778 81.2566 130.676 81.2485 130.57 81.2321C130.472 81.2158 130.366 81.1954 130.251 81.1709ZM141.818 81.2444C141.198 81.2444 140.638 81.1055 140.139 80.8277C139.649 80.5417 139.261 80.1537 138.975 79.6635C138.689 79.1651 138.546 78.5972 138.546 77.96C138.546 77.3145 138.689 76.7467 138.975 76.2565C139.261 75.7663 139.649 75.3823 140.139 75.1045C140.63 74.8267 141.189 74.6878 141.818 74.6878C142.456 74.6878 143.019 74.8267 143.51 75.1045C144.008 75.3823 144.396 75.7663 144.674 76.2565C144.96 76.7467 145.103 77.3145 145.103 77.96C145.103 78.5972 144.96 79.1651 144.674 79.6635C144.396 80.1537 144.008 80.5417 143.51 80.8277C143.011 81.1055 142.448 81.2444 141.818 81.2444ZM141.818 80.4723C142.284 80.4723 142.697 80.3702 143.056 80.1659C143.416 79.9535 143.698 79.6594 143.902 79.2835C144.114 78.8995 144.22 78.4583 144.22 77.96C144.22 77.4534 144.114 77.0122 143.902 76.6364C143.698 76.2606 143.416 75.9705 143.056 75.7663C142.697 75.5538 142.288 75.4476 141.831 75.4476C141.373 75.4476 140.965 75.5538 140.605 75.7663C140.246 75.9705 139.96 76.2606 139.747 76.6364C139.535 77.0122 139.429 77.4534 139.429 77.96C139.429 78.4583 139.535 78.8995 139.747 79.2835C139.96 79.6594 140.246 79.9535 140.605 80.1659C140.965 80.3702 141.369 80.4723 141.818 80.4723ZM146.963 81.1831V74.7491H151.521V75.5089H147.612L147.833 75.2883V81.1831H146.963ZM152.779 81.1831V74.7491H153.649V79.8595L157.951 74.7491H158.723V81.1831H157.853V76.0604L153.563 81.1831H152.779ZM165.285 78.4624C164.909 78.6258 164.529 78.7566 164.145 78.8546C163.77 78.9445 163.394 78.9894 163.018 78.9894C162.258 78.9894 161.658 78.8178 161.216 78.4747C160.775 78.1234 160.555 77.5841 160.555 76.857V74.7491H161.413V76.808C161.413 77.2982 161.572 77.6658 161.89 77.9109C162.209 78.1561 162.638 78.2786 163.177 78.2786C163.504 78.2786 163.847 78.2378 164.207 78.1561C164.566 78.0662 164.93 77.9395 165.297 77.7761L165.285 78.4624ZM165.212 81.1831V74.7491H166.082V81.1831H165.212ZM171.31 81.2444C170.64 81.2444 170.052 81.1055 169.546 80.8277C169.039 80.5417 168.643 80.1537 168.357 79.6635C168.071 79.1651 167.928 78.5972 167.928 77.96C167.928 77.3227 168.063 76.7589 168.332 76.2687C168.61 75.7785 168.986 75.3945 169.46 75.1167C169.942 74.8308 170.481 74.6878 171.077 74.6878C171.682 74.6878 172.217 74.8267 172.683 75.1045C173.157 75.3741 173.529 75.7581 173.798 76.2565C174.068 76.7467 174.203 77.3145 174.203 77.96C174.203 78.0008 174.198 78.0458 174.19 78.0948C174.19 78.1356 174.19 78.1806 174.19 78.2296H168.59V77.5801H173.725L173.381 77.8374C173.381 77.3717 173.279 76.9591 173.075 76.5996C172.879 76.232 172.609 75.946 172.266 75.7418C171.923 75.5375 171.527 75.4354 171.077 75.4354C170.636 75.4354 170.24 75.5375 169.889 75.7418C169.537 75.946 169.264 76.232 169.068 76.5996C168.872 76.9673 168.773 77.3881 168.773 77.8619V77.9967C168.773 78.4869 168.88 78.92 169.092 79.2958C169.313 79.6635 169.615 79.9535 169.999 80.1659C170.391 80.3702 170.836 80.4723 171.335 80.4723C171.727 80.4723 172.091 80.4029 172.426 80.264C172.769 80.1251 173.063 79.9126 173.308 79.6267L173.798 80.1904C173.512 80.5336 173.153 80.795 172.72 80.9748C172.295 81.1545 171.825 81.2444 171.31 81.2444ZM178.825 81.2444C178.188 81.2444 177.616 81.1055 177.109 80.8277C176.611 80.5417 176.219 80.1537 175.933 79.6635C175.647 79.1651 175.504 78.5972 175.504 77.96C175.504 77.3145 175.647 76.7467 175.933 76.2565C176.219 75.7663 176.611 75.3823 177.109 75.1045C177.616 74.8267 178.188 74.6878 178.825 74.6878C179.372 74.6878 179.867 74.794 180.308 75.0064C180.749 75.2189 181.096 75.5375 181.349 75.9624L180.7 76.4035C180.479 76.0767 180.206 75.8357 179.879 75.6805C179.552 75.5253 179.197 75.4476 178.813 75.4476C178.355 75.4476 177.942 75.5538 177.575 75.7663C177.207 75.9705 176.917 76.2606 176.705 76.6364C176.492 77.0122 176.386 77.4534 176.386 77.96C176.386 78.4665 176.492 78.9077 176.705 79.2835C176.917 79.6594 177.207 79.9535 177.575 80.1659C177.942 80.3702 178.355 80.4723 178.813 80.4723C179.197 80.4723 179.552 80.3947 179.879 80.2394C180.206 80.0842 180.479 79.8473 180.7 79.5286L181.349 79.9698C181.096 80.3865 180.749 80.7051 180.308 80.9257C179.867 81.1382 179.372 81.2444 178.825 81.2444ZM187.752 81.1831L185.105 77.9967L185.828 77.5678L188.782 81.1831H187.752ZM183.034 81.1831V74.7491H183.904V81.1831H183.034ZM183.635 78.3154V77.5678H185.706V78.3154H183.635ZM185.902 78.058L185.093 77.9355L187.654 74.7491H188.598L185.902 78.058ZM194.031 81.1831V79.7615L193.994 79.5286V77.1511C193.994 76.6037 193.839 76.183 193.528 75.8888C193.226 75.5947 192.773 75.4476 192.168 75.4476C191.751 75.4476 191.355 75.5171 190.979 75.656C190.603 75.7949 190.285 75.9787 190.023 76.2075L189.631 75.5579C189.958 75.2801 190.35 75.0677 190.808 74.9207C191.265 74.7654 191.747 74.6878 192.254 74.6878C193.087 74.6878 193.728 74.8961 194.178 75.3128C194.635 75.7213 194.864 76.3464 194.864 77.1879V81.1831H194.031ZM191.813 81.2444C191.33 81.2444 190.91 81.1668 190.55 81.0115C190.199 80.8481 189.929 80.6275 189.741 80.3497C189.553 80.0638 189.46 79.737 189.46 79.3693C189.46 79.0343 189.537 78.732 189.692 78.4624C189.856 78.1846 190.117 77.9641 190.477 77.8006C190.844 77.6291 191.335 77.5433 191.947 77.5433H194.166V78.1928H191.972C191.351 78.1928 190.918 78.3031 190.673 78.5237C190.436 78.7443 190.317 79.018 190.317 79.3448C190.317 79.7125 190.46 80.0066 190.746 80.2272C191.032 80.4478 191.433 80.5581 191.947 80.5581C192.438 80.5581 192.858 80.4478 193.21 80.2272C193.569 79.9984 193.831 79.6716 193.994 79.2468L194.19 79.8473C194.027 80.2721 193.741 80.6112 193.332 80.8645C192.932 81.1177 192.425 81.2444 191.813 81.2444ZM201.335 81.1831V78.8669L201.494 79.0507H199.313C198.488 79.0507 197.842 78.8709 197.377 78.5115C196.911 78.152 196.678 77.6291 196.678 76.9428C196.678 76.2075 196.927 75.6601 197.426 75.3006C197.924 74.9329 198.59 74.7491 199.423 74.7491H202.132V81.1831H201.335ZM196.629 81.1831L198.394 78.7075H199.301L197.573 81.1831H196.629ZM201.335 78.6095V75.2515L201.494 75.5089H199.448C198.851 75.5089 198.386 75.6233 198.051 75.8521C197.724 76.0808 197.56 76.4526 197.56 76.9673C197.56 77.9232 198.169 78.4012 199.386 78.4012H201.494L201.335 78.6095ZM212.538 81.1831L209.891 77.9967L210.614 77.5678L213.568 81.1831H212.538ZM207.82 81.1831V74.7491H208.69V81.1831H207.82ZM208.421 78.3154V77.5678H210.492V78.3154H208.421ZM210.688 78.058L209.879 77.9355L212.44 74.7491H213.384L210.688 78.058ZM213.765 81.1709L213.826 80.4233C213.883 80.4314 213.936 80.4437 213.985 80.46C214.042 80.4682 214.091 80.4723 214.132 80.4723C214.394 80.4723 214.602 80.3743 214.757 80.1782C214.921 79.9821 215.043 79.7206 215.125 79.3938C215.207 79.067 215.264 78.6994 215.296 78.2909C215.329 77.8742 215.358 77.4575 215.382 77.0408L215.493 74.7491H220.211V81.1831H219.341V75.2515L219.561 75.5089H216.056L216.265 75.2393L216.167 77.1021C216.142 77.6577 216.097 78.1887 216.032 78.6953C215.975 79.2018 215.881 79.6471 215.75 80.0311C215.627 80.4151 215.456 80.7174 215.235 80.938C215.015 81.1504 214.733 81.2566 214.39 81.2566C214.291 81.2566 214.189 81.2485 214.083 81.2321C213.985 81.2158 213.879 81.1954 213.765 81.1709ZM222.684 81.1831V74.7491H223.554V79.8595L227.856 74.7491H228.628V81.1831H227.758V76.0604L223.469 81.1831H222.684ZM231.122 81.1831V74.7491H231.992V77.5923H236.048V74.7491H236.919V81.1831H236.048V78.3399H231.992V81.1831H231.122ZM239.392 81.1831V74.7491H240.262V79.8595L244.563 74.7491H245.336V81.1831H244.465V76.0604L240.176 81.1831H239.392ZM252.548 81.1831L249.9 77.9967L250.623 77.5678L253.577 81.1831H252.548ZM247.829 81.1831V74.7491H248.699V81.1831H247.829ZM248.43 78.3154V77.5678H250.501V78.3154H248.43ZM250.697 78.058L249.888 77.9355L252.449 74.7491H253.393L250.697 78.058ZM258.826 81.1831V79.7615L258.789 79.5286V77.1511C258.789 76.6037 258.634 76.183 258.323 75.8888C258.021 75.5947 257.568 75.4476 256.963 75.4476C256.546 75.4476 256.15 75.5171 255.774 75.656C255.398 75.7949 255.08 75.9787 254.818 76.2075L254.426 75.5579C254.753 75.2801 255.145 75.0677 255.603 74.9207C256.06 74.7654 256.542 74.6878 257.049 74.6878C257.882 74.6878 258.523 74.8961 258.973 75.3128C259.43 75.7213 259.659 76.3464 259.659 77.1879V81.1831H258.826ZM256.608 81.2444C256.126 81.2444 255.705 81.1668 255.345 81.0115C254.994 80.8481 254.724 80.6275 254.536 80.3497C254.348 80.0638 254.255 79.737 254.255 79.3693C254.255 79.0343 254.332 78.732 254.487 78.4624C254.651 78.1846 254.912 77.9641 255.272 77.8006C255.639 77.6291 256.13 77.5433 256.742 77.5433H258.961V78.1928H256.767C256.146 78.1928 255.713 78.3031 255.468 78.5237C255.231 78.7443 255.112 79.018 255.112 79.3448C255.112 79.7125 255.255 80.0066 255.541 80.2272C255.827 80.4478 256.228 80.5581 256.742 80.5581C257.233 80.5581 257.653 80.4478 258.005 80.2272C258.364 79.9984 258.626 79.6716 258.789 79.2468L258.985 79.8473C258.822 80.2721 258.536 80.6112 258.127 80.8645C257.727 81.1177 257.22 81.2444 256.608 81.2444Z" fill="#F9F9F9"/>
<defs>
<clipPath id="clip0_15_18470">
<rect width="80.5367" height="85.1831" fill="white"/>
</clipPath>
</defs>
</svg>
