<svg width="12" height="12" viewBox="0 0 12 12" fill="none" xmlns="http://www.w3.org/2000/svg">
<path d="M5.69131 0.0269775C5.4005 0.123117 5.45678 0.0691853 2.79963 2.72126C1.40187 4.11647 0.224558 5.31237 0.179998 5.37802C0.00175988 5.643 -0.0498354 6.04632 0.0510099 6.35115C0.20345 6.80372 0.564617 7.07104 1.08291 7.11324L1.26819 7.12966L1.27522 9.04309C1.28226 10.919 1.28461 10.9589 1.33151 11.0855C1.5074 11.5498 1.80056 11.8359 2.22974 11.9625C2.33996 11.9953 2.51586 12 3.48444 12C4.56794 12 4.61484 11.9977 4.68989 11.9531C4.73211 11.9273 4.78605 11.8734 4.81184 11.8312C4.8564 11.7561 4.85875 11.7092 4.85875 10.2648C4.85875 9.24944 4.86813 8.74529 4.88455 8.68198C4.92442 8.54128 5.03464 8.39824 5.15894 8.32555L5.26917 8.2599H6.01026H6.75136L6.86627 8.33024C6.99526 8.40997 7.11721 8.59053 7.14301 8.73356C7.15005 8.78281 7.15708 9.47924 7.15708 10.2835C7.15708 11.8663 7.15239 11.8054 7.28607 11.9297L7.34939 11.9883L8.47745 11.9953C9.23262 12 9.64773 11.993 9.72981 11.9766C10.0535 11.9085 10.4287 11.6225 10.5764 11.3317C10.7406 11.0034 10.7312 11.1371 10.7406 9.03137L10.7476 7.12731L10.94 7.1109C11.4113 7.07104 11.7209 6.86468 11.9156 6.46605C11.9977 6.29253 12 6.2855 12 5.99707C12 5.70631 12 5.70162 11.9109 5.51637C11.8218 5.32878 11.8194 5.32644 9.24903 2.75643C6.67631 0.184085 6.67631 0.184085 6.48869 0.0949793C6.31045 0.0105629 6.287 0.00587273 6.04309 0.00118351C5.87658 -0.00350666 5.75228 0.00587273 5.69131 0.0269775Z" fill="white"/>
</svg>
