<svg width="172" height="55" viewBox="0 0 172 55" fill="none" xmlns="http://www.w3.org/2000/svg">
<g clip-path="url(#clip0_8_16366)">
<path d="M26.0553 15.6744C25.6928 15.6744 25.3971 15.3807 25.3923 15.0149L25.2969 0.669147C25.2922 0.303282 25.5831 0 25.9503 0C26.3128 0 26.6085 0.293654 26.6133 0.659519L26.7087 15.0101C26.7087 15.3759 26.4177 15.6744 26.0553 15.6792V15.6744Z" fill="#E3770B"/>
<path d="M26.313 54.9996C25.9505 54.9996 25.6548 54.7059 25.6501 54.3401L25.5547 39.9943C25.5547 39.6285 25.8456 39.33 26.2081 39.3252C26.5706 39.3252 26.8663 39.6188 26.871 39.9847L26.9664 54.3304C26.9664 54.6963 26.6755 54.9948 26.313 54.9996Z" fill="#E3770B"/>
<path d="M51.9574 38.4978C51.8286 38.8396 51.447 39.0129 51.1084 38.8829L37.8306 33.7608C37.492 33.6308 37.3203 33.2457 37.4491 32.9039C37.5778 32.5621 37.9594 32.3888 38.298 32.5188L51.5758 37.6409C51.9144 37.7709 52.0861 38.156 51.9574 38.4978Z" fill="#E3770B"/>
<path d="M36.4852 21.0566C36.261 20.7677 36.3087 20.3537 36.5901 20.1227L47.7265 11.2023C48.0126 10.9761 48.4228 11.0242 48.6517 11.3082C48.8759 11.5971 48.8282 12.0111 48.5468 12.2421L37.4104 21.1625C37.1243 21.3887 36.7141 21.3406 36.4852 21.0566Z" fill="#E3770B"/>
<path d="M29.0868 15.4196C28.7291 15.3425 28.4859 15.0826 28.5384 14.8322L30.5796 5.19942C30.6321 4.95391 30.9612 4.8143 31.3189 4.89133C31.6766 4.96835 31.9198 5.22831 31.8674 5.47382L29.8261 15.1066C29.7736 15.3522 29.4445 15.4918 29.0868 15.4147V15.4196Z" fill="#E3770B"/>
<path d="M31.8886 16.2424C31.5548 16.098 31.364 15.7899 31.4642 15.5588L35.3512 6.5229C35.4513 6.29182 35.7995 6.22443 36.1333 6.36885C36.4672 6.51327 36.658 6.82136 36.5578 7.05244L32.6708 16.0883C32.5707 16.3194 32.2225 16.3868 31.8886 16.2424Z" fill="#E3770B"/>
<path d="M34.5261 18.1151C34.2257 17.9081 34.0969 17.5712 34.2352 17.3642L39.739 9.22849C39.8821 9.02149 40.235 9.02149 40.5355 9.22849C40.8359 9.4355 40.9647 9.77248 40.8264 9.97948L35.3226 18.1151C35.1795 18.3221 34.8266 18.3221 34.5261 18.1151Z" fill="#E3770B"/>
<path d="M38.0995 23.9547C37.9469 23.6225 38.0089 23.2663 38.2331 23.1604L47.0897 19.0252C47.3139 18.9193 47.6239 19.1022 47.7765 19.4344C47.9291 19.7665 47.8671 20.1228 47.643 20.2287L38.7863 24.3639C38.5622 24.4698 38.2522 24.2869 38.0995 23.9547Z" fill="#E3770B"/>
<path d="M38.5766 26.9397C38.5146 26.5786 38.6625 26.2513 38.9057 26.208L48.5159 24.5038C48.7639 24.4605 49.0119 24.7156 49.0739 25.0815C49.1359 25.4425 48.9881 25.7699 48.7448 25.8132L39.1346 27.5174C38.8866 27.5607 38.6386 27.3056 38.5766 26.9397Z" fill="#E3770B"/>
<path d="M38.2894 30.5356C38.2942 30.1698 38.504 29.8761 38.752 29.8809L48.5101 30.0398C48.7581 30.0398 48.9584 30.3431 48.9488 30.7137C48.9393 31.0844 48.7342 31.3733 48.4862 31.3684L38.7282 31.2096C38.4802 31.2096 38.2799 30.9063 38.2894 30.5356Z" fill="#E3770B"/>
<path d="M35.9451 35.6621C36.2026 35.407 36.5556 35.3396 36.732 35.5225L43.576 42.5461C43.7525 42.7242 43.681 43.0805 43.4234 43.3356C43.1659 43.5908 42.8129 43.6582 42.6365 43.4752L35.7925 36.4516C35.616 36.2735 35.6876 35.9172 35.9451 35.6621Z" fill="#E3770B"/>
<path d="M33.5381 38.1894C33.8576 38.0113 34.2106 38.0498 34.3346 38.2713L39.0371 46.9028C39.1564 47.1242 38.999 47.4468 38.6794 47.6201C38.3599 47.7982 38.007 47.7597 37.883 47.5382L33.1804 38.9067C33.0612 38.6853 33.2186 38.3628 33.5381 38.1894Z" fill="#E3770B"/>
<path d="M30.2821 39.9084C30.6351 39.8314 30.9689 39.9661 31.0214 40.2117L33.0865 49.8397C33.139 50.0852 32.8957 50.35 32.538 50.427C32.1851 50.504 31.8513 50.3692 31.7988 50.1237L29.7337 40.4957C29.6812 40.2502 29.9244 39.9854 30.2821 39.9084Z" fill="#E3770B"/>
<path d="M0.0467078 39.2921C0.180249 39.6339 0.561795 39.7975 0.900418 39.6628L14.1115 34.3625C14.4501 34.2277 14.6122 33.8426 14.4787 33.5008C14.3452 33.159 13.9636 32.9954 13.625 33.1302L0.413946 38.4304C0.0753238 38.5652 -0.0868334 38.9503 0.0467078 39.2921Z" fill="#E3770B"/>
<path d="M15.2687 21.1143C15.4929 20.8255 15.4356 20.4067 15.1495 20.1804L3.89863 11.4141C3.61247 11.1879 3.19754 11.2456 2.97338 11.5345C2.74922 11.8233 2.80645 12.2421 3.09261 12.4684L14.3435 21.2395C14.6296 21.4658 15.0446 21.408 15.2687 21.1192V21.1143Z" fill="#E3770B"/>
<path d="M22.6021 15.3759C22.955 15.2941 23.1983 15.0293 23.141 14.7838L20.971 5.17985C20.9138 4.93433 20.5847 4.79954 20.227 4.88138C19.874 4.96322 19.6308 5.22799 19.688 5.4735L21.8581 15.0774C21.9153 15.323 22.2444 15.4577 22.6021 15.3759Z" fill="#E3770B"/>
<path d="M19.8129 16.2326C20.1467 16.0833 20.328 15.7752 20.2278 15.5442L16.2216 6.56122C16.1214 6.33015 15.7685 6.26756 15.4346 6.4168C15.1008 6.56603 14.9195 6.87413 15.0197 7.1052L19.0259 16.0881C19.1261 16.3192 19.479 16.3818 19.8129 16.2326Z" fill="#E3770B"/>
<path d="M17.1933 18.1435C17.489 17.9317 17.6178 17.5947 17.4699 17.3877L11.8612 9.32905C11.7181 9.12205 11.3604 9.12686 11.0647 9.33868C10.769 9.55049 10.6403 9.88747 10.7881 10.0945L16.3968 18.1531C16.5399 18.3601 16.8976 18.3553 17.1933 18.1435Z" fill="#E3770B"/>
<path d="M13.7049 24.0319C13.8528 23.6949 13.7908 23.3435 13.5619 23.2376L4.65275 19.2227C4.42382 19.1216 4.11858 19.3093 3.97074 19.6415C3.82289 19.9785 3.88489 20.3299 4.11382 20.4358L13.0229 24.4507C13.2519 24.5518 13.5571 24.364 13.7049 24.0319Z" fill="#E3770B"/>
<path d="M13.2645 27.0207C13.3217 26.6596 13.1691 26.3323 12.9259 26.2938L3.29183 24.7196C3.04383 24.6811 2.80059 24.941 2.73859 25.3021C2.68136 25.6631 2.83398 25.9905 3.07721 26.029L12.7113 27.6032C12.9593 27.6417 13.2025 27.3817 13.2645 27.0207Z" fill="#E3770B"/>
<path d="M13.5973 30.612C13.5877 30.2462 13.3779 29.9525 13.1251 29.9621L3.37184 30.2558C3.12384 30.2654 2.9283 30.5687 2.93783 30.9346C2.94737 31.3004 3.15722 31.5941 3.41 31.5845L13.1633 31.2908C13.4113 31.2812 13.6068 30.9779 13.5973 30.612Z" fill="#E3770B"/>
<path d="M16.0195 36.769C15.7572 36.5138 15.4043 36.4561 15.2326 36.639L8.48397 43.7541C8.31228 43.937 8.38382 44.2885 8.64613 44.5436C8.90844 44.7987 9.26137 44.8565 9.43307 44.6736L16.1817 37.5585C16.3534 37.3755 16.2818 37.0241 16.0195 36.769Z" fill="#E3770B"/>
<path d="M19.0121 38.7912C18.6926 38.6179 18.3349 38.6612 18.2204 38.8826L13.6323 47.5767C13.5131 47.7982 13.68 48.1207 13.9996 48.2892C14.3191 48.4625 14.6768 48.4192 14.7913 48.1977L19.3794 39.5036C19.4986 39.2822 19.3317 38.9597 19.0121 38.7912Z" fill="#E3770B"/>
<path d="M22.7939 40.4038C22.4362 40.3316 22.1071 40.4712 22.0594 40.7167L20.1231 50.3688C20.0754 50.6143 20.3234 50.8742 20.6763 50.9465C21.034 51.0187 21.3631 50.8791 21.4108 50.6335L23.3471 40.9815C23.3948 40.736 23.1468 40.476 22.7939 40.4038Z" fill="#E3770B"/>
<path d="M25.4453 24.2917V30.3333L29.1034 21.6055" stroke="#E3770B" stroke-linecap="round" stroke-linejoin="round"/>
</g>
<path d="M58.6985 19.6702L60.1432 19.4347V8.00231L58.6985 7.78245V7.43697H63.4881C64.6188 7.43697 65.5191 7.54166 66.1892 7.75105C66.8592 7.96043 67.346 8.27974 67.6496 8.70898C67.9532 9.12774 68.105 9.68261 68.105 10.3736C68.105 11.8811 67.1523 12.8443 65.2469 13.2631V13.3416C66.409 13.4986 67.3094 13.8441 67.948 14.378C68.5971 14.912 68.9216 15.6553 68.9216 16.608C68.9216 17.7596 68.4976 18.6128 67.6496 19.1677C66.8121 19.7226 65.6762 20 64.2419 20H58.6985V19.6702ZM63.6137 13.216C64.4513 13.216 65.0951 12.9804 65.5453 12.5093C65.9955 12.0382 66.2206 11.3682 66.2206 10.4992V10.405C66.2206 8.68804 65.3098 7.82956 63.4881 7.82956H61.8706V13.216H63.6137ZM64.2419 19.6231C65.1318 19.6231 65.8227 19.3666 66.3148 18.8536C66.8069 18.3302 67.0529 17.5869 67.0529 16.6237V16.4509C67.0529 15.4982 66.8069 14.7863 66.3148 14.3152C65.8332 13.8441 65.1423 13.6086 64.2419 13.6086H61.8706V19.6231H64.2419ZM70.1013 24.1301L71.2005 23.9731V12.3523L70.1013 12.1952V11.8811H72.7709V13.53C73.0326 12.9647 73.3833 12.525 73.8231 12.2109C74.2732 11.8864 74.8072 11.7241 75.4248 11.7241C76.1682 11.7241 76.8225 11.9021 77.3878 12.258C77.9531 12.6035 78.3929 13.0956 78.7069 13.7342C79.021 14.3623 79.178 15.1004 79.178 15.9484C79.178 16.7964 79.021 17.5397 78.7069 18.1784C78.3929 18.8065 77.9531 19.2933 77.3878 19.6388C76.8225 19.9843 76.1682 20.157 75.4248 20.157C74.8072 20.157 74.2732 20 73.8231 19.6859C73.3833 19.3614 73.0326 18.9217 72.7709 18.3668V23.9731L74.2471 24.1301V24.4442H70.1013V24.1301ZM75.2678 19.7644C76.723 19.7644 77.4506 18.7542 77.4506 16.7336V15.1632C77.4506 13.1322 76.723 12.1167 75.2678 12.1167C74.8072 12.1167 74.3884 12.2528 74.0115 12.525C73.6346 12.7867 73.3362 13.1427 73.1164 13.5929C72.8965 14.043 72.7814 14.5298 72.7709 15.0533V16.7336C72.7709 17.2675 72.8756 17.7701 73.085 18.2412C73.3048 18.7018 73.6032 19.0735 73.9801 19.3561C74.3675 19.6283 74.7967 19.7644 75.2678 19.7644ZM84.6681 20.157C83.8934 20.157 83.192 19.9843 82.5638 19.6388C81.9357 19.2829 81.4384 18.7856 81.0719 18.147C80.7055 17.5083 80.5223 16.7703 80.5223 15.9327C80.5223 15.0952 80.7003 14.3623 81.0562 13.7342C81.4227 13.0956 81.9095 12.6035 82.5167 12.258C83.1344 11.9021 83.8201 11.7241 84.5739 11.7241C85.2334 11.7241 85.825 11.8707 86.3484 12.1638C86.8719 12.4569 87.2802 12.8652 87.5733 13.3887C87.8665 13.9017 88.0183 14.4932 88.0287 15.1632H82.2497V16.7179C82.2497 17.6392 82.4539 18.3877 82.8622 18.9636C83.2809 19.5289 83.8829 19.8116 84.6681 19.8116C85.3905 19.8116 86.0291 19.6074 86.584 19.1991C87.1388 18.7908 87.4791 18.2621 87.6047 17.613H87.9659C87.8193 18.3877 87.4477 19.0054 86.8509 19.4661C86.2542 19.9267 85.5266 20.157 84.6681 20.157ZM86.3013 14.7706C86.3013 13.8598 86.16 13.1846 85.8773 12.7448C85.5946 12.2947 85.1549 12.0696 84.5582 12.0696C83.8568 12.0696 83.3124 12.3156 82.925 12.8077C82.5376 13.2997 82.3178 13.954 82.2654 14.7706H86.3013ZM89.0738 20V19.6859L90.2672 19.2148V12.3208L89.168 12.1795V11.8654H92.2145L94.6957 17.7387L97.1612 11.8654H100.051V12.1795L98.9514 12.3366V19.5289L100.051 19.6859V20H96.4388V19.6859L97.3811 19.5289V12.3837L94.1304 20H93.9419L90.6598 12.3837V19.2148L91.8533 19.6859V20H89.0738ZM101.824 20.157C101.562 20.157 101.295 20.0995 101.023 19.9843C100.751 19.8587 100.515 19.6807 100.317 19.4504L100.552 19.2148C100.741 19.4033 100.924 19.4975 101.102 19.4975C101.259 19.4975 101.374 19.4399 101.447 19.3247C101.531 19.2096 101.61 18.9793 101.683 18.6338L101.856 17.723C101.95 17.21 102.123 16.8278 102.374 16.5766C102.625 16.3253 103.033 16.1578 103.599 16.0741V15.9955C103.044 15.9013 102.588 15.6972 102.232 15.3831C101.887 15.069 101.714 14.6084 101.714 14.0012C101.714 13.2997 101.95 12.771 102.421 12.4151C102.892 12.0486 103.656 11.8654 104.714 11.8654H109.205V12.1952L108.074 12.3523V19.5132L109.205 19.6859V20H105.373V19.6859L106.504 19.5132V16.2625H105.059C104.609 16.2625 104.258 16.362 104.007 16.5609C103.766 16.7598 103.609 17.0896 103.536 17.5502L103.3 18.885C103.217 19.3457 103.065 19.6755 102.845 19.8744C102.625 20.0628 102.285 20.157 101.824 20.157ZM106.504 15.8699V12.258H105.185C104.578 12.258 104.127 12.3941 103.834 12.6663C103.552 12.9385 103.41 13.373 103.41 13.9697V14.1739C103.41 14.7602 103.557 15.1894 103.85 15.4616C104.143 15.7338 104.546 15.8699 105.059 15.8699H106.504ZM58.6985 38.6702L60.1432 38.4347V27.0023L58.6985 26.7825V26.437H63.4881C64.6188 26.437 65.5191 26.5417 66.1892 26.751C66.8592 26.9604 67.346 27.2797 67.6496 27.709C67.9532 28.1277 68.105 28.6826 68.105 29.3736C68.105 30.8811 67.1523 31.8443 65.2469 32.2631V32.3416C66.409 32.4986 67.3094 32.8441 67.948 33.378C68.5971 33.912 68.9216 34.6553 68.9216 35.608C68.9216 36.7596 68.4976 37.6128 67.6496 38.1677C66.8121 38.7226 65.6762 39 64.2419 39H58.6985V38.6702ZM63.6137 32.216C64.4513 32.216 65.0951 31.9804 65.5453 31.5093C65.9955 31.0382 66.2206 30.3682 66.2206 29.4992V29.405C66.2206 27.688 65.3098 26.8296 63.4881 26.8296H61.8706V32.216H63.6137ZM64.2419 38.6231C65.1318 38.6231 65.8227 38.3666 66.3148 37.8536C66.8069 37.3302 67.0529 36.5869 67.0529 35.6237V35.4509C67.0529 34.4982 66.8069 33.7863 66.3148 33.3152C65.8332 32.8441 65.1423 32.6086 64.2419 32.6086H61.8706V38.6231H64.2419ZM74.514 39.157C73.7602 39.157 73.0745 38.9843 72.4568 38.6388C71.8391 38.2829 71.3471 37.7856 70.9807 37.147C70.6247 36.4979 70.4467 35.7598 70.4467 34.9327C70.4467 34.1057 70.6247 33.3728 70.9807 32.7342C71.3471 32.0956 71.8391 31.6035 72.4568 31.258C73.0745 30.9021 73.7602 30.7241 74.514 30.7241C75.2678 30.7241 75.9535 30.9021 76.5712 31.258C77.1889 31.6035 77.6757 32.0956 78.0317 32.7342C78.3981 33.3728 78.5813 34.1057 78.5813 34.9327C78.5813 35.7598 78.3981 36.4979 78.0317 37.147C77.6757 37.7856 77.1889 38.2829 76.5712 38.6388C75.9535 38.9843 75.2678 39.157 74.514 39.157ZM74.514 38.8116C75.2887 38.8116 75.8698 38.5289 76.2571 37.9636C76.655 37.3982 76.8539 36.6497 76.8539 35.7179V34.1475C76.8539 33.2158 76.655 32.4725 76.2571 31.9176C75.8698 31.3523 75.2887 31.0696 74.514 31.0696C73.7393 31.0696 73.153 31.3523 72.7552 31.9176C72.3678 32.4725 72.1742 33.2158 72.1742 34.1475V35.7179C72.1742 36.6497 72.3678 37.3982 72.7552 37.9636C73.153 38.5289 73.7393 38.8116 74.514 38.8116ZM83.1592 39.157C81.9971 39.157 81.1491 38.9948 80.6152 38.6702C80.0917 38.3352 79.83 37.9164 79.83 37.4139C79.83 37.0998 79.919 36.8486 80.097 36.6601C80.2854 36.4612 80.5314 36.3618 80.835 36.3618C81.034 36.3618 81.2119 36.4141 81.369 36.5188C81.526 36.6235 81.6359 36.7701 81.6987 36.9585C81.5208 37.1679 81.4318 37.3877 81.4318 37.6181C81.4318 37.974 81.5888 38.2724 81.9029 38.5132C82.2274 38.7435 82.6462 38.8587 83.1592 38.8587C83.7873 38.8587 84.2899 38.6964 84.6668 38.3718C85.0541 38.0368 85.2478 37.55 85.2478 36.9114V36.7072C85.2478 36.1314 85.0332 35.6917 84.6039 35.3881C84.1852 35.0741 83.6617 34.917 83.0336 34.917H82.1542V34.5401H83.0336C83.6303 34.5401 84.0857 34.3988 84.3998 34.1161C84.7139 33.823 84.8709 33.399 84.8709 32.8441V32.7813C84.8709 31.6088 84.316 31.0225 83.2063 31.0225C82.6096 31.0225 82.0599 31.169 81.5574 31.4622L80.6152 33.7078H80.2854L80.4581 30.7241L81.4004 31.1795C81.9866 30.8759 82.5991 30.7241 83.2377 30.7241C84.4103 30.7241 85.2583 30.8968 85.7817 31.2423C86.3052 31.5773 86.5669 32.0851 86.5669 32.7656C86.5669 33.2576 86.3837 33.6659 86.0173 33.9905C85.6613 34.315 85.1222 34.5349 84.3998 34.6501V34.6658C85.2478 34.7495 85.8812 34.9746 86.3 35.341C86.7292 35.7074 86.9438 36.1943 86.9438 36.8015C86.9438 37.5448 86.6297 38.1258 86.0016 38.5446C85.3734 38.9529 84.426 39.157 83.1592 39.157ZM87.9367 43.1301L89.036 42.9731V31.3523L87.9367 31.1952V30.8811H90.6064V32.53C90.8681 31.9647 91.2188 31.525 91.6585 31.2109C92.1087 30.8864 92.6426 30.7241 93.2603 30.7241C94.0036 30.7241 94.6579 30.9021 95.2233 31.258C95.7886 31.6035 96.2283 32.0956 96.5424 32.7342C96.8565 33.3623 97.0135 34.1004 97.0135 34.9484C97.0135 35.7964 96.8565 36.5397 96.5424 37.1784C96.2283 37.8065 95.7886 38.2933 95.2233 38.6388C94.6579 38.9843 94.0036 39.157 93.2603 39.157C92.6426 39.157 92.1087 39 91.6585 38.6859C91.2188 38.3614 90.8681 37.9217 90.6064 37.3668V42.9731L92.0825 43.1301V43.4442H87.9367V43.1301ZM93.1033 38.7644C94.5585 38.7644 95.2861 37.7542 95.2861 35.7336V34.1632C95.2861 32.1322 94.5585 31.1167 93.1033 31.1167C92.6426 31.1167 92.2238 31.2528 91.847 31.525C91.4701 31.7867 91.1717 32.1427 90.9518 32.5929C90.732 33.043 90.6168 33.5298 90.6064 34.0533V35.7336C90.6064 36.2675 90.711 36.7701 90.9204 37.2412C91.1403 37.7018 91.4387 38.0735 91.8155 38.3561C92.2029 38.6283 92.6321 38.7644 93.1033 38.7644ZM102.425 39.157C101.671 39.157 100.986 38.9843 100.368 38.6388C99.7502 38.2829 99.2581 37.7856 98.8917 37.147C98.5357 36.4979 98.3578 35.7598 98.3578 34.9327C98.3578 34.1057 98.5357 33.3728 98.8917 32.7342C99.2581 32.0956 99.7502 31.6035 100.368 31.258C100.986 30.9021 101.671 30.7241 102.425 30.7241C103.179 30.7241 103.865 30.9021 104.482 31.258C105.1 31.6035 105.587 32.0956 105.943 32.7342C106.309 33.3728 106.492 34.1057 106.492 34.9327C106.492 35.7598 106.309 36.4979 105.943 37.147C105.587 37.7856 105.1 38.2829 104.482 38.6388C103.865 38.9843 103.179 39.157 102.425 39.157ZM102.425 38.8116C103.2 38.8116 103.781 38.5289 104.168 37.9636C104.566 37.3982 104.765 36.6497 104.765 35.7179V34.1475C104.765 33.2158 104.566 32.4725 104.168 31.9176C103.781 31.3523 103.2 31.0696 102.425 31.0696C101.65 31.0696 101.064 31.3523 100.666 31.9176C100.279 32.4725 100.085 33.2158 100.085 34.1475V35.7179C100.085 36.6497 100.279 37.3982 100.666 37.9636C101.064 38.5289 101.65 38.8116 102.425 38.8116ZM108.589 39.1884C108.327 39.1884 108.06 39.1256 107.788 39C107.516 38.8848 107.28 38.7121 107.081 38.4818L107.317 38.2462C107.505 38.4347 107.689 38.5289 107.867 38.5289C108.024 38.5289 108.144 38.4713 108.228 38.3561C108.312 38.2305 108.385 38.0002 108.448 37.6652L108.715 36.2832C108.809 35.7284 109.013 35.3148 109.327 35.0426C109.652 34.7704 110.159 34.6029 110.85 34.5401C110.62 34.3307 110.447 33.9853 110.332 33.5037L110.034 32.373C109.95 32.0799 109.783 31.9333 109.531 31.9333C109.406 31.9333 109.301 31.9804 109.217 32.0746C109.133 32.1689 109.092 32.284 109.092 32.4201C109.092 32.5039 109.107 32.5929 109.139 32.6871C108.992 32.7394 108.84 32.7656 108.683 32.7656C108.39 32.7656 108.155 32.6714 107.977 32.4829C107.809 32.284 107.725 32.0485 107.725 31.7763C107.725 31.4831 107.83 31.2371 108.039 31.0382C108.249 30.8288 108.542 30.7241 108.919 30.7241C109.369 30.7241 109.699 30.855 109.908 31.1167C110.128 31.368 110.301 31.7501 110.426 32.2631L110.709 33.3937C110.803 33.7811 110.929 34.0585 111.086 34.226C111.243 34.3936 111.452 34.4878 111.714 34.5087H113.049V31.3523L111.918 31.1952V30.8654H115.75V31.1952L114.619 31.3523V34.5087H115.923C116.184 34.4982 116.394 34.4093 116.551 34.2418C116.718 34.0742 116.854 33.7916 116.959 33.3937L117.242 32.2631C117.367 31.7501 117.535 31.368 117.744 31.1167C117.964 30.855 118.299 30.7241 118.749 30.7241C119.126 30.7241 119.419 30.8288 119.629 31.0382C119.838 31.2371 119.943 31.4831 119.943 31.7763C119.943 32.0485 119.854 32.284 119.676 32.4829C119.508 32.6714 119.278 32.7656 118.985 32.7656C118.828 32.7656 118.676 32.7394 118.53 32.6871C118.561 32.5929 118.577 32.5039 118.577 32.4201C118.577 32.284 118.535 32.1689 118.451 32.0746C118.367 31.9804 118.263 31.9333 118.137 31.9333C117.886 31.9333 117.718 32.0799 117.634 32.373L117.336 33.5037C117.221 33.9748 117.043 34.3203 116.802 34.5401C117.493 34.6029 118.001 34.7704 118.325 35.0426C118.65 35.3148 118.859 35.7284 118.954 36.2832L119.22 37.6652C119.283 38.0002 119.357 38.2305 119.44 38.3561C119.524 38.4713 119.644 38.5289 119.802 38.5289C119.98 38.5289 120.163 38.4347 120.351 38.2462L120.587 38.4818C120.388 38.7121 120.152 38.8848 119.88 39C119.608 39.1256 119.341 39.1884 119.079 39.1884C118.619 39.1884 118.278 39.0942 118.058 38.9058C117.839 38.7069 117.687 38.3771 117.603 37.9164L117.289 36.2204C117.195 35.7074 117.032 35.3567 116.802 35.1683C116.572 34.9694 116.252 34.8699 115.844 34.8699H114.619V38.5132L115.75 38.6859V39H111.918V38.6859L113.049 38.5132V34.8699H111.745C111.358 34.8804 111.055 34.9851 110.835 35.184C110.615 35.3829 110.463 35.7284 110.379 36.2204L110.065 37.9164C109.981 38.3771 109.83 38.7069 109.61 38.9058C109.39 39.0942 109.05 39.1884 108.589 39.1884ZM128.872 41.5911H128.432L127.051 39H121.994L120.628 41.5911H120.188L120.424 38.6074H120.926C121.156 38.6074 121.381 38.5079 121.601 38.309C121.821 38.1101 122.015 37.8222 122.182 37.4453C122.329 37.0998 122.444 36.6706 122.528 36.1576C122.622 35.6446 122.706 34.8385 122.779 33.7392L122.905 31.8548L121.476 31.1795V30.8654H128.621V31.1795L127.522 31.3366V38.6074H128.637L128.872 41.5911ZM125.951 31.258H123.344L123.172 33.7392C123.098 34.849 123.015 35.6708 122.92 36.2047C122.826 36.7282 122.711 37.1679 122.575 37.5238C122.481 37.7542 122.376 37.9531 122.261 38.1206C122.156 38.2776 122.062 38.3928 121.978 38.4661C121.905 38.5394 121.858 38.5865 121.837 38.6074H125.951V31.258ZM133.804 39.157C133.029 39.157 132.328 38.9843 131.699 38.6388C131.071 38.2829 130.574 37.7856 130.208 37.147C129.841 36.5083 129.658 35.7703 129.658 34.9327C129.658 34.0952 129.836 33.3623 130.192 32.7342C130.558 32.0956 131.045 31.6035 131.652 31.258C132.27 30.9021 132.956 30.7241 133.71 30.7241C134.369 30.7241 134.961 30.8707 135.484 31.1638C136.008 31.4569 136.416 31.8652 136.709 32.3887C137.002 32.9017 137.154 33.4932 137.164 34.1632H131.385V35.7179C131.385 36.6392 131.59 37.3877 131.998 37.9636C132.417 38.5289 133.019 38.8116 133.804 38.8116C134.526 38.8116 135.165 38.6074 135.72 38.1991C136.275 37.7908 136.615 37.2621 136.74 36.613H137.102C136.955 37.3877 136.583 38.0054 135.987 38.4661C135.39 38.9267 134.662 39.157 133.804 39.157ZM135.437 33.7706C135.437 32.8598 135.296 32.1846 135.013 31.7448C134.73 31.2947 134.291 31.0696 133.694 31.0696C132.992 31.0696 132.448 31.3156 132.061 31.8077C131.673 32.2997 131.453 32.954 131.401 33.7706H135.437ZM138.209 39V38.6859L139.309 38.5289V31.3366L138.209 31.1795V30.8654H141.821V31.1795L140.879 31.3366V34.6815H144.758V31.3366L143.816 31.1795V30.8654H147.428V31.1795L146.328 31.3366V38.5289L147.428 38.6859V39H143.816V38.6859L144.758 38.5289V35.0741H140.879V38.5289L141.821 38.6859V39H138.209ZM148.27 39V38.6859L149.369 38.5289V31.3366L148.27 31.1795V30.8654H151.882V31.1795L150.939 31.3366V37.4453L154.912 31.6506V31.3366L153.97 31.1795V30.8654H157.582V31.1795L156.483 31.3366V38.5289L157.582 38.6859V39H153.97V38.6859L154.912 38.5289V32.3102L150.939 38.1206V38.5289L151.882 38.6859V39H148.27ZM159.364 39.157C159.102 39.157 158.835 39.0995 158.563 38.9843C158.291 38.8587 158.055 38.6807 157.856 38.4504L158.092 38.2148C158.28 38.4033 158.463 38.4975 158.641 38.4975C158.798 38.4975 158.914 38.4399 158.987 38.3247C159.071 38.2096 159.149 37.9793 159.222 37.6338L159.395 36.723C159.489 36.21 159.662 35.8278 159.913 35.5766C160.165 35.3253 160.573 35.1578 161.138 35.0741V34.9955C160.583 34.9013 160.128 34.6972 159.772 34.3831C159.427 34.069 159.254 33.6084 159.254 33.0012C159.254 32.2997 159.489 31.771 159.961 31.4151C160.432 31.0486 161.196 30.8654 162.253 30.8654H166.745V31.1952L165.614 31.3523V38.5132L166.745 38.6859V39H162.913V38.6859L164.044 38.5132V35.2625H162.599C162.149 35.2625 161.798 35.362 161.547 35.5609C161.306 35.7598 161.149 36.0896 161.076 36.5502L160.84 37.885C160.756 38.3457 160.604 38.6755 160.385 38.8744C160.165 39.0628 159.824 39.157 159.364 39.157ZM164.044 34.8699V31.258H162.724C162.117 31.258 161.667 31.3941 161.374 31.6663C161.091 31.9385 160.95 32.373 160.95 32.9697V33.1739C160.95 33.7602 161.096 34.1894 161.39 34.4616C161.683 34.7338 162.086 34.8699 162.599 34.8699H164.044Z" fill="#403429"/>
<path opacity="0.5" d="M63.0554 46.461H63.633V52H63.0554V46.461ZM59.5896 52H59.004V46.461H59.5896V52ZM63.1108 49.4442H59.5263V48.9298H63.1108V49.4442ZM67.9478 52V51.0821L67.9241 50.9318V49.3967C67.9241 49.0432 67.8239 48.7716 67.6234 48.5817C67.4282 48.3917 67.1354 48.2968 66.7451 48.2968C66.476 48.2968 66.2202 48.3416 65.9775 48.4313C65.7349 48.521 65.5291 48.6397 65.3603 48.7874L65.1071 48.368C65.3181 48.1886 65.5713 48.0515 65.8668 47.9565C66.1622 47.8563 66.4734 47.8062 66.8005 47.8062C67.3385 47.8062 67.7526 47.9407 68.0428 48.2097C68.3382 48.4735 68.4859 48.8771 68.4859 49.4204V52H67.9478ZM66.5156 52.0396C66.2044 52.0396 65.9327 51.9894 65.7006 51.8892C65.4737 51.7837 65.2997 51.6413 65.1783 51.4619C65.057 51.2773 64.9963 51.0663 64.9963 50.8289C64.9963 50.6126 65.0465 50.4174 65.1467 50.2433C65.2522 50.064 65.421 49.9216 65.6531 49.8161C65.8905 49.7053 66.207 49.6499 66.6026 49.6499H68.0349V50.0693H66.6185C66.2176 50.0693 65.938 50.1405 65.7797 50.2829C65.6267 50.4253 65.5502 50.6021 65.5502 50.8131C65.5502 51.0505 65.6426 51.2404 65.8272 51.3828C66.0118 51.5252 66.2703 51.5964 66.6026 51.5964C66.9192 51.5964 67.1908 51.5252 67.4177 51.3828C67.6498 51.2351 67.8186 51.0241 67.9241 50.7498L68.0507 51.1375C67.9452 51.4118 67.7606 51.6307 67.4968 51.7943C67.2383 51.9578 66.9112 52.0396 66.5156 52.0396ZM72.1259 52.0396C71.7672 52.0396 71.4427 51.9578 71.1526 51.7943C70.8625 51.6255 70.6303 51.3854 70.4563 51.0742C70.2875 50.7577 70.2031 50.3726 70.2031 49.9189C70.2031 49.4653 70.2875 49.0828 70.4563 48.7716C70.6251 48.455 70.8545 48.215 71.1447 48.0515C71.4348 47.888 71.7619 47.8062 72.1259 47.8062C72.5215 47.8062 72.875 47.8959 73.1862 48.0752C73.5027 48.2493 73.7506 48.4972 73.93 48.819C74.1094 49.1356 74.199 49.5022 74.199 49.9189C74.199 50.3409 74.1094 50.7102 73.93 51.0267C73.7506 51.3432 73.5027 51.5912 73.1862 51.7705C72.875 51.9499 72.5215 52.0396 72.1259 52.0396ZM69.9815 53.5351V47.8458H70.5196V49.096L70.4642 49.9268L70.5433 50.7656V53.5351H69.9815ZM72.0863 51.5411C72.3817 51.5411 72.6455 51.4751 72.8776 51.3432C73.1097 51.2061 73.2943 51.0162 73.4315 50.7735C73.5686 50.5256 73.6372 50.2407 73.6372 49.9189C73.6372 49.5971 73.5686 49.3149 73.4315 49.0722C73.2943 48.8296 73.1097 48.6397 72.8776 48.5025C72.6455 48.3654 72.3817 48.2968 72.0863 48.2968C71.7909 48.2968 71.5245 48.3654 71.2871 48.5025C71.055 48.6397 70.8704 48.8296 70.7332 49.0722C70.6013 49.3149 70.5354 49.5971 70.5354 49.9189C70.5354 50.2407 70.6013 50.5256 70.7332 50.7735C70.8704 51.0162 71.055 51.2061 71.2871 51.3432C71.5245 51.4751 71.7909 51.5411 72.0863 51.5411ZM78.4526 52L76.7434 49.9427L77.2102 49.6657L79.1172 52H78.4526ZM75.4061 52V47.8458H75.9679V52H75.4061ZM75.7938 50.1484V49.6657H77.1311V50.1484H75.7938ZM77.2577 49.9822L76.7355 49.9031L78.3893 47.8458H78.9985L77.2577 49.9822ZM81.5663 52.0396C81.1653 52.0396 80.804 51.9499 80.4822 51.7705C80.1657 51.5859 79.9151 51.3353 79.7305 51.0188C79.5459 50.697 79.4535 50.3304 79.4535 49.9189C79.4535 49.5022 79.5459 49.1356 79.7305 48.819C79.9151 48.5025 80.1657 48.2546 80.4822 48.0752C80.7987 47.8959 81.1601 47.8062 81.5663 47.8062C81.9777 47.8062 82.3417 47.8959 82.6582 48.0752C82.98 48.2546 83.2306 48.5025 83.41 48.819C83.5946 49.1356 83.6869 49.5022 83.6869 49.9189C83.6869 50.3304 83.5946 50.697 83.41 51.0188C83.2306 51.3353 82.98 51.5859 82.6582 51.7705C82.3364 51.9499 81.9725 52.0396 81.5663 52.0396ZM81.5663 51.5411C81.867 51.5411 82.1334 51.4751 82.3655 51.3432C82.5976 51.2061 82.7796 51.0162 82.9114 50.7735C83.0486 50.5256 83.1172 50.2407 83.1172 49.9189C83.1172 49.5919 83.0486 49.307 82.9114 49.0643C82.7796 48.8217 82.5976 48.6344 82.3655 48.5025C82.1334 48.3654 81.8696 48.2968 81.5742 48.2968C81.2788 48.2968 81.015 48.3654 80.7829 48.5025C80.5508 48.6344 80.3662 48.8217 80.229 49.0643C80.0918 49.307 80.0233 49.5919 80.0233 49.9189C80.0233 50.2407 80.0918 50.5256 80.229 50.7735C80.3662 51.0162 80.5508 51.2061 80.7829 51.3432C81.015 51.4751 81.2761 51.5411 81.5663 51.5411ZM84.1048 51.9921L84.1444 51.5094C84.1813 51.5147 84.2156 51.5226 84.2472 51.5331C84.2842 51.5384 84.3158 51.5411 84.3422 51.5411C84.511 51.5411 84.6455 51.4778 84.7457 51.3511C84.8513 51.2245 84.9304 51.0557 84.9831 50.8447C85.0359 50.6337 85.0728 50.3963 85.0939 50.1326C85.115 49.8635 85.1335 49.5945 85.1493 49.3255L85.2205 47.8458H88.267V52H87.7051V48.1702L87.8476 48.3364H85.5845L85.719 48.1623L85.6557 49.365C85.6399 49.7237 85.6109 50.0666 85.5687 50.3937C85.5318 50.7208 85.4711 51.0083 85.3867 51.2562C85.3076 51.5041 85.1968 51.6993 85.0543 51.8417C84.9119 51.9789 84.7299 52.0475 84.5084 52.0475C84.4451 52.0475 84.3791 52.0422 84.3105 52.0317C84.2472 52.0211 84.1787 52.0079 84.1048 51.9921ZM91.5732 52.0396C91.1723 52.0396 90.811 51.9499 90.4892 51.7705C90.1727 51.5859 89.9221 51.3353 89.7375 51.0188C89.5528 50.697 89.4605 50.3304 89.4605 49.9189C89.4605 49.5022 89.5528 49.1356 89.7375 48.819C89.9221 48.5025 90.1727 48.2546 90.4892 48.0752C90.8057 47.8959 91.167 47.8062 91.5732 47.8062C91.9847 47.8062 92.3487 47.8959 92.6652 48.0752C92.987 48.2546 93.2376 48.5025 93.4169 48.819C93.6016 49.1356 93.6939 49.5022 93.6939 49.9189C93.6939 50.3304 93.6016 50.697 93.4169 51.0188C93.2376 51.3353 92.987 51.5859 92.6652 51.7705C92.3434 51.9499 91.9794 52.0396 91.5732 52.0396ZM91.5732 51.5411C91.8739 51.5411 92.1403 51.4751 92.3724 51.3432C92.6045 51.2061 92.7865 51.0162 92.9184 50.7735C93.0556 50.5256 93.1241 50.2407 93.1241 49.9189C93.1241 49.5919 93.0556 49.307 92.9184 49.0643C92.7865 48.8217 92.6045 48.6344 92.3724 48.5025C92.1403 48.3654 91.8766 48.2968 91.5811 48.2968C91.2857 48.2968 91.022 48.3654 90.7899 48.5025C90.5577 48.6344 90.3731 48.8217 90.236 49.0643C90.0988 49.307 90.0302 49.5919 90.0302 49.9189C90.0302 50.2407 90.0988 50.5256 90.236 50.7735C90.3731 51.0162 90.5577 51.2061 90.7899 51.3432C91.022 51.4751 91.2831 51.5411 91.5732 51.5411ZM94.8946 52V47.8458H97.8382V48.3364H95.314L95.4564 48.1939V52H94.8946ZM98.6501 52V47.8458H99.2119V51.1454L101.989 47.8458H102.488V52H101.926V48.6924L99.1565 52H98.6501ZM106.725 50.2433C106.482 50.3489 106.237 50.4333 105.989 50.4966C105.746 50.5546 105.504 50.5836 105.261 50.5836C104.77 50.5836 104.383 50.4728 104.098 50.2513C103.813 50.0244 103.671 49.6763 103.671 49.2068V47.8458H104.225V49.1751C104.225 49.4916 104.327 49.729 104.533 49.8873C104.739 50.0455 105.016 50.1247 105.364 50.1247C105.575 50.1247 105.797 50.0983 106.029 50.0455C106.261 49.9875 106.495 49.9057 106.733 49.8002L106.725 50.2433ZM106.677 52V47.8458H107.239V52H106.677ZM110.615 52.0396C110.183 52.0396 109.803 51.9499 109.476 51.7705C109.149 51.5859 108.893 51.3353 108.708 51.0188C108.524 50.697 108.431 50.3304 108.431 49.9189C108.431 49.5075 108.518 49.1435 108.692 48.8269C108.872 48.5104 109.114 48.2625 109.42 48.0831C109.732 47.8985 110.08 47.8062 110.465 47.8062C110.855 47.8062 111.201 47.8959 111.501 48.0752C111.807 48.2493 112.047 48.4972 112.221 48.819C112.396 49.1356 112.483 49.5022 112.483 49.9189C112.483 49.9453 112.48 49.9743 112.475 50.006C112.475 50.0323 112.475 50.0614 112.475 50.093H108.859V49.6736H112.174L111.952 49.8398C111.952 49.5391 111.887 49.2727 111.755 49.0406C111.628 48.8032 111.454 48.6186 111.232 48.4867C111.011 48.3548 110.755 48.2889 110.465 48.2889C110.18 48.2889 109.924 48.3548 109.697 48.4867C109.47 48.6186 109.294 48.8032 109.167 49.0406C109.041 49.278 108.977 49.5497 108.977 49.8556V49.9427C108.977 50.2592 109.046 50.5388 109.183 50.7814C109.325 51.0188 109.521 51.2061 109.769 51.3432C110.022 51.4751 110.309 51.5411 110.631 51.5411C110.884 51.5411 111.119 51.4962 111.335 51.4065C111.557 51.3169 111.747 51.1797 111.905 50.9951L112.221 51.3591C112.037 51.5806 111.805 51.7494 111.525 51.8655C111.251 51.9815 110.948 52.0396 110.615 52.0396ZM115.467 52.0396C115.056 52.0396 114.686 51.9499 114.359 51.7705C114.037 51.5859 113.784 51.3353 113.6 51.0188C113.415 50.697 113.323 50.3304 113.323 49.9189C113.323 49.5022 113.415 49.1356 113.6 48.819C113.784 48.5025 114.037 48.2546 114.359 48.0752C114.686 47.8959 115.056 47.8062 115.467 47.8062C115.82 47.8062 116.14 47.8748 116.425 48.0119C116.709 48.1491 116.934 48.3548 117.097 48.6291L116.678 48.914C116.535 48.703 116.359 48.5474 116.148 48.4471C115.937 48.3469 115.707 48.2968 115.459 48.2968C115.164 48.2968 114.897 48.3654 114.66 48.5025C114.423 48.6344 114.235 48.8217 114.098 49.0643C113.961 49.307 113.892 49.5919 113.892 49.9189C113.892 50.246 113.961 50.5308 114.098 50.7735C114.235 51.0162 114.423 51.2061 114.66 51.3432C114.897 51.4751 115.164 51.5411 115.459 51.5411C115.707 51.5411 115.937 51.4909 116.148 51.3907C116.359 51.2905 116.535 51.1375 116.678 50.9318L117.097 51.2166C116.934 51.4857 116.709 51.6914 116.425 51.8338C116.14 51.971 115.82 52.0396 115.467 52.0396ZM121.231 52L119.522 49.9427L119.989 49.6657L121.896 52H121.231ZM118.185 52V47.8458H118.747V52H118.185ZM118.573 50.1484V49.6657H119.91V50.1484H118.573ZM120.037 49.9822L119.514 49.9031L121.168 47.8458H121.777L120.037 49.9822ZM125.285 52V51.0821L125.261 50.9318V49.3967C125.261 49.0432 125.161 48.7716 124.961 48.5817C124.765 48.3917 124.473 48.2968 124.082 48.2968C123.813 48.2968 123.557 48.3416 123.315 48.4313C123.072 48.521 122.866 48.6397 122.698 48.7874L122.444 48.368C122.655 48.1886 122.909 48.0515 123.204 47.9565C123.499 47.8563 123.811 47.8062 124.138 47.8062C124.676 47.8062 125.09 47.9407 125.38 48.2097C125.675 48.4735 125.823 48.8771 125.823 49.4204V52H125.285ZM123.853 52.0396C123.542 52.0396 123.27 51.9894 123.038 51.8892C122.811 51.7837 122.637 51.6413 122.516 51.4619C122.394 51.2773 122.334 51.0663 122.334 50.8289C122.334 50.6126 122.384 50.4174 122.484 50.2433C122.589 50.064 122.758 49.9216 122.99 49.8161C123.228 49.7053 123.544 49.6499 123.94 49.6499H125.372V50.0693H123.956C123.555 50.0693 123.275 50.1405 123.117 50.2829C122.964 50.4253 122.887 50.6021 122.887 50.8131C122.887 51.0505 122.98 51.2404 123.164 51.3828C123.349 51.5252 123.608 51.5964 123.94 51.5964C124.256 51.5964 124.528 51.5252 124.755 51.3828C124.987 51.2351 125.156 51.0241 125.261 50.7498L125.388 51.1375C125.282 51.4118 125.098 51.6307 124.834 51.7943C124.576 51.9578 124.248 52.0396 123.853 52.0396ZM130.001 52V50.5045L130.104 50.6232H128.696C128.163 50.6232 127.746 50.5071 127.445 50.275C127.145 50.0429 126.994 49.7053 126.994 49.2622C126.994 48.7874 127.155 48.4339 127.477 48.2018C127.799 47.9644 128.229 47.8458 128.767 47.8458H130.515V52H130.001ZM126.963 52L128.102 50.4016H128.688L127.572 52H126.963ZM130.001 50.3383V48.1702L130.104 48.3364H128.783C128.397 48.3364 128.097 48.4102 127.881 48.5579C127.67 48.7056 127.564 48.9456 127.564 49.278C127.564 49.8952 127.957 50.2038 128.743 50.2038H130.104L130.001 50.3383ZM137.235 52L135.526 49.9427L135.992 49.6657L137.899 52H137.235ZM134.188 52V47.8458H134.75V52H134.188ZM134.576 50.1484V49.6657H135.913V50.1484H134.576ZM136.04 49.9822L135.518 49.9031L137.171 47.8458H137.781L136.04 49.9822ZM138.027 51.9921L138.066 51.5094C138.103 51.5147 138.137 51.5226 138.169 51.5331C138.206 51.5384 138.238 51.5411 138.264 51.5411C138.433 51.5411 138.567 51.4778 138.667 51.3511C138.773 51.2245 138.852 51.0557 138.905 50.8447C138.958 50.6337 138.995 50.3963 139.016 50.1326C139.037 49.8635 139.055 49.5945 139.071 49.3255L139.142 47.8458H142.189V52H141.627V48.1702L141.769 48.3364H139.506L139.641 48.1623L139.577 49.365C139.562 49.7237 139.533 50.0666 139.49 50.3937C139.453 50.7208 139.393 51.0083 139.308 51.2562C139.229 51.5041 139.118 51.6993 138.976 51.8417C138.834 51.9789 138.652 52.0475 138.43 52.0475C138.367 52.0475 138.301 52.0422 138.232 52.0317C138.169 52.0211 138.1 52.0079 138.027 51.9921ZM143.786 52V47.8458H144.348V51.1454L147.125 47.8458H147.623V52H147.062V48.6924L144.292 52H143.786ZM149.234 52V47.8458H149.795V49.6815H152.415V47.8458H152.976V52H152.415V50.1642H149.795V52H149.234ZM154.573 52V47.8458H155.135V51.1454L157.912 47.8458H158.411V52H157.849V48.6924L155.08 52H154.573ZM163.067 52L161.358 49.9427L161.825 49.6657L163.732 52H163.067ZM160.021 52V47.8458H160.583V52H160.021ZM160.409 50.1484V49.6657H161.746V50.1484H160.409ZM161.873 49.9822L161.35 49.9031L163.004 47.8458H163.613L161.873 49.9822ZM167.121 52V51.0821L167.097 50.9318V49.3967C167.097 49.0432 166.997 48.7716 166.797 48.5817C166.601 48.3917 166.309 48.2968 165.918 48.2968C165.649 48.2968 165.393 48.3416 165.151 48.4313C164.908 48.521 164.702 48.6397 164.534 48.7874L164.28 48.368C164.491 48.1886 164.745 48.0515 165.04 47.9565C165.335 47.8563 165.647 47.8062 165.974 47.8062C166.512 47.8062 166.926 47.9407 167.216 48.2097C167.511 48.4735 167.659 48.8771 167.659 49.4204V52H167.121ZM165.689 52.0396C165.378 52.0396 165.106 51.9894 164.874 51.8892C164.647 51.7837 164.473 51.6413 164.352 51.4619C164.23 51.2773 164.17 51.0663 164.17 50.8289C164.17 50.6126 164.22 50.4174 164.32 50.2433C164.425 50.064 164.594 49.9216 164.826 49.8161C165.064 49.7053 165.38 49.6499 165.776 49.6499H167.208V50.0693H165.792C165.391 50.0693 165.111 50.1405 164.953 50.2829C164.8 50.4253 164.724 50.6021 164.724 50.8131C164.724 51.0505 164.816 51.2404 165 51.3828C165.185 51.5252 165.444 51.5964 165.776 51.5964C166.092 51.5964 166.364 51.5252 166.591 51.3828C166.823 51.2351 166.992 51.0241 167.097 50.7498L167.224 51.1375C167.118 51.4118 166.934 51.6307 166.67 51.7943C166.412 51.9578 166.085 52.0396 165.689 52.0396Z" fill="#7F695F"/>
<defs>
<clipPath id="clip0_8_16366">
<rect width="52" height="55" fill="white"/>
</clipPath>
</defs>
</svg>
