<svg width="77" height="77" viewBox="0 0 77 77" fill="none" xmlns="http://www.w3.org/2000/svg">
<rect x="5" y="5" width="67" height="67" rx="33.5" fill="#E3770B"/>
<rect x="5" y="5" width="67" height="67" rx="33.5" stroke="#F4F0EC" stroke-width="10"/>
<path d="M38.5 52.5C44 46.9 49.5 41.8855 49.5 35.7C49.5 29.5144 44.5751 24.5 38.5 24.5C32.4249 24.5 27.5 29.5144 27.5 35.7C27.5 41.8855 33 46.9 38.5 52.5Z" fill="white"/>
<path d="M38.5 40.0556C41.1037 40.0556 43.2143 37.9663 43.2143 35.3889C43.2143 32.8116 41.1037 30.7222 38.5 30.7222C35.8963 30.7222 33.7857 32.8116 33.7857 35.3889C33.7857 37.9663 35.8963 40.0556 38.5 40.0556Z" fill="white"/>
<path d="M38.5 52.5C44 46.9 49.5 41.8855 49.5 35.7C49.5 29.5144 44.5751 24.5 38.5 24.5C32.4249 24.5 27.5 29.5144 27.5 35.7C27.5 41.8855 33 46.9 38.5 52.5Z" stroke="#E3770B" stroke-width="2" stroke-linecap="round" stroke-linejoin="round"/>
<path d="M38.5 40.0556C41.1037 40.0556 43.2143 37.9663 43.2143 35.3889C43.2143 32.8116 41.1037 30.7222 38.5 30.7222C35.8963 30.7222 33.7857 32.8116 33.7857 35.3889C33.7857 37.9663 35.8963 40.0556 38.5 40.0556Z" stroke="#E3770B" stroke-width="2" stroke-linecap="round" stroke-linejoin="round"/>
</svg>
