<svg width="10" height="16" viewBox="0 0 10 16" fill="none" xmlns="http://www.w3.org/2000/svg">
<path d="M5.00054 8.09262C7.09187 8.09262 8.78686 6.39304 8.78686 4.29613C8.78683 2.19922 7.09184 0.5 5.00054 0.5C2.90848 0.5 1.21279 2.19922 1.21279 4.29613C1.21276 6.39304 2.90848 8.09262 5.00054 8.09262ZM5.00054 2.42845C6.02921 2.42845 6.86316 3.26451 6.86316 4.2961C6.86316 5.32772 6.02921 6.16376 5.00054 6.16376C3.97079 6.16376 3.13716 5.32772 3.13716 4.2961C3.13716 3.26451 3.97076 2.42845 5.00054 2.42845ZM9.36507 8.55588C9.15176 8.12523 8.55961 7.76708 7.77236 8.38853C6.70826 9.22862 5.00051 9.22862 5.00051 9.22862C5.00051 9.22862 3.29165 9.22862 2.22755 8.38853C1.44069 7.76708 0.848919 8.12523 0.635227 8.55588C0.261896 9.30626 0.683072 9.66917 1.63359 10.2808C2.44529 10.8034 3.56089 10.9985 4.28091 11.0714L3.67962 11.6742C2.83288 12.5227 2.01571 13.3426 1.44839 13.9114C1.10902 14.2512 1.10902 14.8024 1.44839 15.1422L1.55028 15.2451C1.88965 15.585 2.43908 15.585 2.77841 15.2451L5.00965 13.0079C5.85713 13.8568 6.6743 14.6764 7.24159 15.2451C7.58095 15.585 8.13038 15.585 8.46972 15.2451L8.57161 15.1422C8.91098 14.802 8.91098 14.2512 8.57161 13.911L6.34038 11.6742L5.73766 11.0696C6.45838 10.9949 7.56157 10.7989 8.36668 10.2808C9.31722 9.66914 9.7377 9.30623 9.36507 8.55588Z" fill="#626659"/>
</svg>
