<svg width="20" height="12" viewBox="0 0 20 12" fill="none" xmlns="http://www.w3.org/2000/svg">
<path d="M17.7929 8.3042C16.1129 6.67175 16.3274 6.92016 18.3648 4.11661C19.5801 2.41319 20.0806 1.34855 19.9376 0.887201C19.8661 0.603296 18.901 0.674272 18.901 0.674272H15.8984C15.8984 0.674272 15.4338 0.674272 15.255 0.993665C14.9333 1.59696 14.7904 2.34221 14.1469 3.44234C12.7887 5.82004 12.2525 5.96199 12.038 5.82004C11.5376 5.46516 11.6448 4.436 11.6448 3.69075C11.6448 1.38403 11.9665 0.425856 11.0014 0.141952C10.787 0.0709759 10.6082 0.0709755 10.2865 0.0354875C9.89333 -5.42033e-07 9.50014 0 9.14269 0C8.24908 0 7.56993 0.0354876 7.10525 0.248416C6.7478 0.425856 6.49759 0.816225 6.67631 0.851713C6.89078 0.887201 7.31972 0.993664 7.56993 1.31306C7.89163 1.73891 7.85589 2.73258 7.85589 2.73258C7.85589 2.73258 8.03461 5.46516 7.42695 5.78455C7.03376 6.03296 6.46184 5.53613 5.28227 3.37136C4.67461 2.27123 4.60312 1.52599 4.20993 1.02915C3.95972 0.70976 3.49504 0.603296 3.49504 0.603296H0.635461C0.635461 0.603296 0.135035 0.567808 0.0635461 0.709761C-0.0794326 0.887201 0.0635461 1.24208 0.0635461 1.24208C0.0635461 1.24208 2.31546 6.74272 4.85333 9.51079C7.10525 12.1369 9.75035 11.995 9.75035 11.995C9.75035 11.995 11.2874 12.0659 11.5018 11.6756C11.6448 11.5336 11.6806 11.1078 11.6806 11.1078C11.6806 11.1078 11.6448 9.40433 12.3955 9.15591C13.1461 8.90749 14.0755 10.7884 15.0763 11.4981C15.8269 12.0659 16.0414 11.995 16.3989 11.995C17.1138 11.995 19.0797 11.995 19.0797 11.995C19.0797 11.995 20.4738 11.853 19.8304 10.6819C19.7231 10.6109 19.4014 9.86567 17.7929 8.3042Z" fill="white"/>
</svg>
