<svg width="27" height="24" viewBox="0 0 27 24" fill="none" xmlns="http://www.w3.org/2000/svg">
<path d="M2.25 0C1.00781 0 0 1.00781 0 2.25V12H6.75C7.1625 12 7.5 12.3375 7.5 12.75C7.5 13.1625 7.1625 13.5 6.75 13.5H0V16.5H6.75C7.1625 16.5 7.5 16.8375 7.5 17.25C7.5 17.6625 7.1625 18 6.75 18H0V21.75C0 22.9922 1.00781 24 2.25 24H12.4641C12.1687 23.5219 12 22.9594 12 22.3547C12 20.1562 13.2094 18.2391 15 17.2359V2.25C15 1.00781 13.9922 0 12.75 0H2.25ZM7.125 3H7.875C8.2875 3 8.625 3.3375 8.625 3.75V4.875H9.75C10.1625 4.875 10.5 5.2125 10.5 5.625V6.375C10.5 6.7875 10.1625 7.125 9.75 7.125H8.625V8.25C8.625 8.6625 8.2875 9 7.875 9H7.125C6.7125 9 6.375 8.6625 6.375 8.25V7.125H5.25C4.8375 7.125 4.5 6.7875 4.5 6.375V5.625C4.5 5.2125 4.8375 4.875 5.25 4.875H6.375V3.75C6.375 3.3375 6.7125 3 7.125 3ZM24 12.75C24 11.7554 23.6049 10.8016 22.9016 10.0983C22.1984 9.39509 21.2446 9 20.25 9C19.2554 9 18.3016 9.39509 17.5984 10.0983C16.8951 10.8016 16.5 11.7554 16.5 12.75C16.5 13.7446 16.8951 14.6984 17.5984 15.4017C18.3016 16.1049 19.2554 16.5 20.25 16.5C21.2446 16.5 22.1984 16.1049 22.9016 15.4017C23.6049 14.6984 24 13.7446 24 12.75ZM13.5 22.3641C13.5 23.2688 14.2312 24 15.1359 24H25.3641C26.2687 24 27 23.2688 27 22.3641C27 19.9547 25.0453 18 22.6359 18H17.8641C15.4547 18 13.5 19.9547 13.5 22.3641Z" fill="#F4F0EC"/>
</svg>
