<svg width="18" height="18" viewBox="0 0 18 18" fill="none" xmlns="http://www.w3.org/2000/svg">
<path d="M0 2.5C0 11.0604 6.93959 18 15.5 18C15.8862 18 16.2691 17.9859 16.6483 17.9581C17.0834 17.9262 17.3009 17.9103 17.499 17.7963C17.663 17.7019 17.8185 17.5345 17.9007 17.364C18 17.1582 18 16.9181 18 16.438V13.6207C18 13.2169 18 13.015 17.9335 12.842C17.8749 12.6891 17.7795 12.553 17.6559 12.4456C17.516 12.324 17.3262 12.255 16.9468 12.117L13.74 10.9509C13.2985 10.7904 13.0777 10.7101 12.8683 10.7237C12.6836 10.7357 12.5059 10.7988 12.3549 10.9058C12.1837 11.0271 12.0629 11.2285 11.8212 11.6314L11 13C8.3501 11.7999 6.2019 9.6489 5 7L6.36863 6.17882C6.77145 5.93713 6.97286 5.81628 7.0942 5.64506C7.2012 5.49408 7.2643 5.31637 7.2763 5.1317C7.2899 4.92227 7.2096 4.70153 7.0491 4.26005L5.88299 1.05321C5.745 0.67376 5.67601 0.48403 5.55442 0.3441C5.44701 0.22049 5.31089 0.12515 5.15802 0.0664501C4.98496 1.21593e-07 4.78308 0 4.37932 0H1.56201C1.08188 0 0.84181 7.15256e-08 0.63598 0.0992501C0.4655 0.18146 0.29814 0.33701 0.2037 0.50103C0.0896801 0.69907 0.0737499 0.91662 0.0418899 1.35173C0.0141299 1.73086 0 2.11378 0 2.5Z" fill="#F4F0EC"/>
</svg>
