<svg width="20" height="21" viewBox="0 0 20 21" fill="none" xmlns="http://www.w3.org/2000/svg">
<path d="M0 3.27778C0 12.7893 7.71066 20.5 17.2222 20.5C17.6513 20.5 18.0768 20.4843 18.4981 20.4534C18.9816 20.418 19.2232 20.4003 19.4433 20.2737C19.6256 20.1688 19.7983 19.9828 19.8897 19.7933C20 19.5647 20 19.2979 20 18.7644V15.6341C20 15.1854 20 14.9611 19.9261 14.7689C19.861 14.599 19.755 14.4478 19.6177 14.3284C19.4622 14.1933 19.2513 14.1167 18.8298 13.9633L15.2667 12.6677C14.7761 12.4893 14.5308 12.4001 14.2981 12.4152C14.0929 12.4286 13.8954 12.4987 13.7277 12.6176C13.5374 12.7523 13.4032 12.9761 13.1347 13.4238L12.2222 14.9444C9.27789 13.611 6.891 11.221 5.55556 8.27778L7.07626 7.36536C7.52383 7.09681 7.74762 6.96253 7.88244 6.77229C8.00133 6.60453 8.07144 6.40708 8.08478 6.20189C8.09989 5.96919 8.01067 5.72392 7.83233 5.23339L6.53666 1.67023C6.38333 1.24862 6.30668 1.03781 6.17158 0.882333C6.05223 0.744989 5.90099 0.639056 5.73113 0.573833C5.53884 0.5 5.31453 0.5 4.86591 0.5H1.73557C1.20209 0.5 0.935344 0.5 0.706644 0.610278C0.517222 0.701622 0.331267 0.874456 0.226333 1.0567C0.0996445 1.27674 0.0819443 1.51847 0.0465443 2.00192C0.0156999 2.42318 0 2.84864 0 3.27778Z" fill="#E3770B"/>
</svg>
