<svg width="19" height="19" viewBox="0 0 19 19" fill="none" xmlns="http://www.w3.org/2000/svg">
<path d="M0.5 3C0.5 11.5604 7.43959 18.5 16 18.5C16.3862 18.5 16.7691 18.4859 17.1483 18.4581C17.5834 18.4262 17.8009 18.4103 17.999 18.2963C18.163 18.2019 18.3185 18.0345 18.4007 17.864C18.5 17.6582 18.5 17.4181 18.5 16.938V14.1207C18.5 13.7169 18.5 13.515 18.4335 13.342C18.3749 13.1891 18.2795 13.053 18.1559 12.9456C18.016 12.824 17.8262 12.755 17.4468 12.617L14.24 11.4509C13.7985 11.2904 13.5777 11.2101 13.3683 11.2237C13.1836 11.2357 13.0059 11.2988 12.8549 11.4058C12.6837 11.5271 12.5629 11.7285 12.3212 12.1314L11.5 13.5C8.8501 12.2999 6.7019 10.1489 5.5 7.5L6.86863 6.67882C7.27145 6.43713 7.47286 6.31628 7.5942 6.14506C7.7012 5.99408 7.7643 5.81637 7.7763 5.6317C7.7899 5.42227 7.7096 5.20153 7.5491 4.76005L6.38299 1.55321C6.245 1.17376 6.17601 0.98403 6.05442 0.8441C5.94701 0.72049 5.81089 0.62515 5.65802 0.56645C5.48496 0.5 5.28308 0.5 4.87932 0.5H2.06201C1.58188 0.5 1.34181 0.5 1.13598 0.59925C0.9655 0.68146 0.79814 0.83701 0.7037 1.00103C0.58968 1.19907 0.57375 1.41662 0.54189 1.85173C0.51413 2.23086 0.5 2.61378 0.5 3Z" fill="#626659"/>
</svg>
