<svg width="10" height="13" viewBox="0 0 10 13" fill="none" xmlns="http://www.w3.org/2000/svg">
<path fill-rule="evenodd" clip-rule="evenodd" d="M1.53692 1.83466C2.45589 0.915689 3.70229 0.399414 5.00192 0.399414C6.30154 0.399414 7.54794 0.915689 8.46692 1.83466C9.38589 2.75364 9.90217 4.00004 9.90217 5.29966C9.90217 6.59929 9.38589 7.84569 8.46692 8.76466L5.00192 12.2297L1.53692 8.76466C1.08186 8.30965 0.72088 7.76946 0.474601 7.17493C0.228321 6.5804 0.101563 5.94318 0.101562 5.29966C0.101563 4.65615 0.228321 4.01893 0.474601 3.4244C0.72088 2.82987 1.08186 2.28968 1.53692 1.83466ZM5.00192 6.69966C5.37322 6.69966 5.72931 6.55216 5.99187 6.28961C6.25442 6.02706 6.40192 5.67097 6.40192 5.29966C6.40192 4.92836 6.25442 4.57227 5.99187 4.30971C5.72931 4.04716 5.37322 3.89966 5.00192 3.89966C4.63061 3.89966 4.27452 4.04716 4.01197 4.30971C3.74942 4.57227 3.60192 4.92836 3.60192 5.29966C3.60192 5.67097 3.74942 6.02706 4.01197 6.28961C4.27452 6.55216 4.63061 6.69966 5.00192 6.69966Z" fill="#E3770B"/>
</svg>
