<svg width="18" height="24" viewBox="0 0 18 24" fill="none" xmlns="http://www.w3.org/2000/svg">
<path d="M9 23C13.25 18.6 17.5 14.66 17.5 9.8C17.5 4.93989 13.6944 1 9 1C4.30558 1 0.5 4.93989 0.5 9.8C0.5 14.66 4.75 18.6 9 23Z" fill="#E3770B"/>
<path d="M9 13.2222C11.0119 13.2222 12.6429 11.5807 12.6429 9.55556C12.6429 7.53052 11.0119 5.88889 9 5.88889C6.98805 5.88889 5.35714 7.53052 5.35714 9.55556C5.35714 11.5807 6.98805 13.2222 9 13.2222Z" fill="#E3770B"/>
<path d="M9 23C13.25 18.6 17.5 14.66 17.5 9.8C17.5 4.93989 13.6944 1 9 1C4.30558 1 0.5 4.93989 0.5 9.8C0.5 14.66 4.75 18.6 9 23Z" stroke="white" stroke-linecap="round" stroke-linejoin="round"/>
<path d="M9 13.2222C11.0119 13.2222 12.6429 11.5807 12.6429 9.55556C12.6429 7.53052 11.0119 5.88889 9 5.88889C6.98805 5.88889 5.35714 7.53052 5.35714 9.55556C5.35714 11.5807 6.98805 13.2222 9 13.2222Z" stroke="white" stroke-linecap="round" stroke-linejoin="round"/>
</svg>
