<svg width="174" height="211" viewBox="0 0 174 211" fill="none" xmlns="http://www.w3.org/2000/svg">
<path fill-rule="evenodd" clip-rule="evenodd" d="M25.6216 26.2203C41.9006 9.94134 63.9796 0.795898 87.0016 0.795898C110.024 0.795898 132.103 9.94134 148.382 26.2203C164.661 42.4993 173.806 64.5784 173.806 87.6003C173.806 110.622 164.661 132.701 148.382 148.98L87.0016 210.36L25.6216 148.98C17.5605 140.92 11.1661 131.351 6.80342 120.819C2.44075 110.288 0.195313 98.9998 0.195312 87.6003C0.195313 76.2009 2.44075 64.913 6.80342 54.3814C11.1661 43.8497 17.5605 34.2806 25.6216 26.2203ZM87.0016 112.4C93.5789 112.4 99.8869 109.787 104.538 105.137C109.189 100.486 111.802 94.1777 111.802 87.6003C111.802 81.023 109.189 74.715 104.538 70.0641C99.8869 65.4132 93.5789 62.8003 87.0016 62.8003C80.4242 62.8003 74.1162 65.4132 69.4653 70.0641C64.8144 74.715 62.2016 81.023 62.2016 87.6003C62.2016 94.1777 64.8144 100.486 69.4653 105.137C74.1162 109.787 80.4242 112.4 87.0016 112.4Z" fill="white"/>
</svg>
