<svg width="20" height="20" viewBox="0 0 20 20" fill="none" xmlns="http://www.w3.org/2000/svg">
<g clip-path="url(#clip0_8_16445)">
<g filter="url(#filter0_d_8_16445)">
<path d="M7.02734 1.3039C4.49219 1.66719 2.39062 3.40937 1.57812 5.81953C1.31641 6.60078 1.26562 6.94062 1.26562 7.96797C1.26562 8.77656 1.27734 8.93281 1.35547 9.29609C1.66016 10.6828 2.27344 11.7844 3.30078 12.7727C4.59766 14.0227 6.28906 14.6633 8.10156 14.5969C8.96484 14.5617 9.60547 14.4289 10.4062 14.1125C11.4258 13.7141 12.4688 12.9211 13.1797 12.0109C14.9375 9.75703 15.0586 6.56172 13.4766 4.21016C12.793 3.19453 11.957 2.46015 10.875 1.9289C9.91797 1.46015 9.19922 1.28828 8.10156 1.26484C7.64453 1.25703 7.26953 1.27265 7.02734 1.3039ZM8.22656 3.82734C8.57031 4.03437 8.61719 4.50312 8.32031 4.77266C8.17969 4.89766 7.97656 4.96016 7.70703 4.96016C7.42969 4.96016 6.94141 5.09297 6.60547 5.25703C5.64062 5.72969 5.01562 6.67109 4.93359 7.78047C4.90625 8.15156 4.83984 8.29609 4.64062 8.44453C4.36719 8.64766 3.95703 8.52266 3.78906 8.18672C3.69531 8.00312 3.69531 7.9875 3.73828 7.58125C3.92578 5.8 5.16406 4.32734 6.85156 3.88594C7.3125 3.76484 7.33594 3.76094 7.75 3.75312C8.03516 3.74922 8.125 3.76484 8.22656 3.82734Z" fill="#E3770B"/>
</g>
<path d="M14.5117 12.2144C13.9414 13.0972 13.082 13.9605 12.2187 14.5191C12.0703 14.6128 11.9531 14.7027 11.9531 14.7183C11.9531 14.7339 12.7852 15.5738 13.8008 16.5855C15.4609 18.2417 15.668 18.4331 15.8984 18.5425C17.0352 19.0816 18.3516 18.5074 18.6953 17.3238C18.8359 16.8394 18.7539 16.2066 18.4961 15.7535C18.4297 15.6363 17.6992 14.8745 16.5664 13.7378C15.5664 12.7339 14.7383 11.9136 14.7266 11.9136C14.7148 11.9136 14.6211 12.0503 14.5117 12.2144Z" fill="#E3770B"/>
</g>
<defs>
<filter id="filter0_d_8_16445" x="-2.73438" y="1.2627" width="21.3203" height="21.3389" filterUnits="userSpaceOnUse" color-interpolation-filters="sRGB">
<feFlood flood-opacity="0" result="BackgroundImageFix"/>
<feColorMatrix in="SourceAlpha" type="matrix" values="0 0 0 0 0 0 0 0 0 0 0 0 0 0 0 0 0 0 127 0" result="hardAlpha"/>
<feOffset dy="4"/>
<feGaussianBlur stdDeviation="2"/>
<feComposite in2="hardAlpha" operator="out"/>
<feColorMatrix type="matrix" values="0 0 0 0 0 0 0 0 0 0 0 0 0 0 0 0 0 0 0.25 0"/>
<feBlend mode="normal" in2="BackgroundImageFix" result="effect1_dropShadow_8_16445"/>
<feBlend mode="normal" in="SourceGraphic" in2="effect1_dropShadow_8_16445" result="shape"/>
</filter>
<clipPath id="clip0_8_16445">
<rect width="20" height="20" fill="white"/>
</clipPath>
</defs>
</svg>
