<svg width="16" height="12" viewBox="0 0 16 12" fill="none" xmlns="http://www.w3.org/2000/svg">
<path d="M14.2212 0.105939C14.2212 0.105939 15.6088 -0.413489 15.4932 0.847981C15.4546 1.36742 15.1077 3.18541 14.8379 5.15184L13.9128 10.9769C13.9128 10.9769 13.8358 11.8302 13.1419 11.9786C12.4481 12.127 11.4074 11.4592 11.2147 11.3108C11.0605 11.1995 8.32386 9.52988 7.36022 8.71364C7.0904 8.49102 6.78204 8.04579 7.39875 7.52636L11.446 3.81617C11.9085 3.37094 12.371 2.33208 10.4438 3.59355L5.04754 7.11826C5.04754 7.11826 4.43082 7.48926 3.2745 7.15536L0.769079 6.41331C0.769079 6.41331 -0.155997 5.85678 1.42434 5.30022C5.27882 3.55642 10.0198 1.77552 14.2212 0.105939Z" fill="#626659"/>
</svg>
