<svg width="10" height="18" viewBox="0 0 10 18" fill="none" xmlns="http://www.w3.org/2000/svg">
<path d="M4.98804 9.30702C2.54199 9.30702 0.508956 7.19559 0.508956 4.69716C0.508956 2.11233 2.54199 0 4.98891 0C7.51895 0 9.468 2.11143 9.468 4.69716C9.46364 5.92392 8.99086 7.09869 8.15357 7.96327C7.31627 8.82786 6.18298 9.3115 5.00276 9.30792L4.98804 9.30702ZM4.98804 2.71533C3.95248 2.71533 3.16455 3.61985 3.16455 4.69806C3.16455 5.77447 3.95248 6.59348 4.98891 6.59348C6.06691 6.59348 6.81328 5.77447 6.81328 4.69806C6.81414 3.61895 6.06691 2.71533 4.98804 2.71533ZM6.77171 13.1429L9.30262 15.6854C9.80049 16.2443 9.80049 17.0633 9.30262 17.5808C8.76406 18.1397 7.9337 18.1397 7.51895 17.5808L4.98891 14.9951L2.54199 17.5808C2.29349 17.8391 1.961 17.9678 1.58695 17.9678C1.29689 17.9678 0.965264 17.8382 0.674335 17.5808C0.176467 17.0633 0.176467 16.2443 0.674335 15.6845L3.24594 13.142C2.31725 12.8561 1.42636 12.4513 0.59381 11.9368C-0.0287424 11.5921 -0.15256 10.7308 0.179064 10.0837C0.593811 9.43752 1.34018 9.26562 2.00429 9.69672C2.90357 10.2672 3.9367 10.569 4.99021 10.569C6.04372 10.569 7.07685 10.2672 7.97612 9.69672C8.64024 9.26562 9.4273 9.43752 9.80049 10.0837C10.1745 10.7308 10.0074 11.5912 9.42644 11.9368C8.63937 12.4544 7.72676 12.8423 6.77258 13.1438L6.77171 13.1429Z" fill="white"/>
</svg>
