<svg width="14" height="10" viewBox="0 0 14 10" fill="none" xmlns="http://www.w3.org/2000/svg">
<path d="M13.6832 1.11873C13.5257 1.65367 13.3133 2.11929 13.0473 2.54208L13.0583 2.52317C12.797 2.99363 12.4848 3.53717 12.1219 4.15381C11.8108 4.64065 11.6461 4.89268 11.6278 4.9099C11.5473 5.0189 11.4912 5.15248 11.472 5.29929L11.4714 5.3037C11.4872 5.43727 11.5443 5.55384 11.6278 5.64079L11.8611 5.9218C13.1097 7.30755 13.8119 8.26274 13.9679 8.78738C13.9883 8.84535 14 8.91214 14 8.98208C14 9.10431 13.9638 9.2171 13.9026 9.30972L13.9037 9.30783C13.8011 9.42187 13.6575 9.49244 13.4988 9.49244C13.4813 9.49244 13.4632 9.49181 13.4463 9.48992H13.4487H11.9137C11.9131 9.48992 11.9119 9.48992 11.9107 9.48992C11.7141 9.48992 11.5333 9.41557 11.3915 9.29208L11.3932 9.29333C11.1867 9.10998 11.0029 8.91151 10.8384 8.69602L10.8331 8.68846C10.5644 8.3604 10.3259 8.08422 10.1179 7.85991C9.42474 7.14835 8.91326 6.79256 8.58343 6.79256C8.57118 6.7913 8.55718 6.79067 8.54259 6.79067C8.44632 6.79067 8.35648 6.82281 8.28238 6.87762L8.28413 6.87636C8.22345 6.95827 8.1867 7.06413 8.1867 7.17817C8.1867 7.20085 8.18786 7.22228 8.19078 7.24433V7.24181C8.17503 7.43965 8.16569 7.66963 8.16569 7.90213C8.16569 7.97711 8.16686 8.05146 8.16861 8.1258V8.11509V8.84535C8.17445 8.87496 8.17795 8.90899 8.17795 8.94364C8.17795 9.09612 8.11377 9.23222 8.01342 9.32232L8.01284 9.32295C7.78705 9.43447 7.52334 9.5 7.24504 9.5C7.18553 9.5 7.12719 9.49685 7.06943 9.49118L7.07701 9.49181C6.15869 9.47291 5.30688 9.18244 4.58285 8.69287L4.60327 8.70547C3.7217 8.12707 2.99125 7.37412 2.43466 6.48446L2.4189 6.45799C1.89032 5.70064 1.39732 4.845 0.977246 3.94273L0.936406 3.8457C0.690782 3.34038 0.436406 2.71913 0.217036 2.08023L0.18203 1.96367C0.0927655 1.67635 0.0280047 1.34241 0.00116686 0.9965L0 0.980748C0 0.662349 0.173473 0.50315 0.52042 0.50315H2.05484C2.06884 0.50189 2.08518 0.50126 2.1021 0.50126C2.24679 0.50126 2.3804 0.554817 2.486 0.644917L2.48483 0.643657C2.60152 0.781644 2.68786 0.951134 2.73046 1.14016L2.73221 1.14772C3.01459 2.00903 3.31389 2.73236 3.65811 3.42544L3.61902 3.33912C3.90023 3.95029 4.2112 4.47641 4.56593 4.96219L4.55251 4.94266C4.86367 5.35515 5.10638 5.5614 5.28063 5.5614C5.28588 5.56203 5.2923 5.56203 5.2993 5.56203C5.38565 5.56203 5.46091 5.51162 5.50175 5.43601L5.50233 5.43475C5.54551 5.31504 5.57059 5.17579 5.57059 5.03087C5.57059 5 5.56943 4.96913 5.56709 4.93888V4.94266V2.4986C5.55484 2.21066 5.4895 1.94161 5.3804 1.70029L5.38506 1.71227C5.31272 1.54593 5.22579 1.40227 5.12252 1.27436L5.12427 1.27688C5.02859 1.17355 4.96324 1.03808 4.94282 0.886866L4.94224 0.883086C4.94224 0.775973 4.98775 0.679572 5.05893 0.616564L5.05951 0.615934C5.13011 0.545996 5.22462 0.50378 5.32789 0.50378H5.33256H7.75146C7.76429 0.50189 7.77888 0.50126 7.79405 0.50126C7.90782 0.50126 8.00992 0.556707 8.0776 0.643657L8.07818 0.644287C8.13827 0.762742 8.17386 0.904509 8.17386 1.05447C8.17386 1.07841 8.1727 1.10172 8.17095 1.12504V1.12188V4.38127C8.16978 4.39639 8.1692 4.41403 8.1692 4.43167C8.1692 4.54761 8.19895 4.65661 8.25029 4.74923L8.24913 4.74671C8.29172 4.81476 8.36289 4.85886 8.44341 4.85886C8.54609 4.8513 8.64002 4.81476 8.71879 4.75679L8.71704 4.75805C8.87573 4.64023 9.01225 4.50602 9.13069 4.35417L9.13302 4.35102C9.48716 3.91879 9.81389 3.44119 10.0986 2.93335L10.1214 2.88925C10.3221 2.5301 10.5391 2.08779 10.7357 1.63351L10.7719 1.54088L11.0321 0.978857C11.1225 0.697844 11.3652 0.5 11.6505 0.5C11.6616 0.5 11.6727 0.5 11.6838 0.50063H11.682H13.217C13.6317 0.50063 13.7872 0.706665 13.6838 1.11873H13.6832Z" fill="#626659"/>
</svg>
