<svg width="18" height="18" viewBox="0 0 18 18" fill="none" xmlns="http://www.w3.org/2000/svg">
<path d="M0.27177 8.43492C2.11321 7.33266 4.16877 6.41271 6.08938 5.48805C9.39358 3.97352 12.7109 2.48525 16.0617 1.09968C16.7137 0.863598 17.885 0.632718 17.9999 1.68263C17.937 3.16876 17.6783 4.64619 17.5008 6.12363C17.0504 9.37264 16.5297 12.6105 16.0221 15.8488C15.8471 16.9275 14.6037 17.4859 13.8081 16.7956C11.896 15.3921 9.9692 14.0022 8.08154 12.5662C7.46319 11.8834 8.03658 10.9029 8.58883 10.4153C10.1637 8.72871 11.8338 7.29579 13.3264 5.52207C13.729 4.46553 12.5394 5.35595 12.147 5.62877C9.99106 7.24329 7.88785 8.95638 5.61478 10.3753C4.45369 11.0699 3.10043 10.4763 1.93987 10.0887C0.89928 9.62056 -0.625461 9.14882 0.27177 8.43492Z" fill="white"/>
</svg>
