<svg width="32" height="32" viewBox="0 0 32 32" fill="none" xmlns="http://www.w3.org/2000/svg">
<g clip-path="url(#clip0_15_18418)">
<path d="M21.8145 0.131252C21.2332 0.212502 20.9207 0.350002 19.5394 1.14375C9.28945 7.03125 2.18945 11.175 2.1332 11.2938C2.05195 11.475 2.1332 11.7188 2.3082 11.8125C2.3957 11.8563 2.5957 11.8563 2.9832 11.8125C3.72695 11.7313 25.7707 11.725 26.5145 11.8125C27.5082 11.925 28.3082 12.3125 29.0019 13C29.7644 13.7688 30.1019 14.5313 30.2019 15.75C30.2394 16.1813 30.2957 16.5688 30.3332 16.6063C30.3644 16.65 30.5019 16.6875 30.6332 16.6875C30.8519 16.6875 30.9019 16.6563 31.1332 16.3625C31.9519 15.3313 32.1144 13.8125 31.5207 12.6625C31.4207 12.4813 29.9519 9.9125 28.2519 6.9625C25.2832 1.8125 25.1395 1.575 24.6894 1.11875C23.902 0.318752 22.902 -0.0187473 21.8145 0.131252ZM26.202 5.09375C26.7145 5.98125 27.1082 6.725 27.0832 6.75C27.0582 6.775 25.3895 7.7375 23.3895 8.9L19.7395 11L15.9457 10.9875L12.1519 10.9688L18.6582 7.20625C22.2332 5.1375 25.1832 3.45625 25.2145 3.4625C25.2457 3.46875 25.6894 4.2 26.202 5.09375Z" fill="#F4F0EC"/>
<path d="M2.44375 12.6002C1.3625 12.8877 0.425 13.819 0.1 14.9315C0.0125 15.2377 0 16.044 0 22.2502C0 28.4565 0.0125 29.2627 0.1 29.569C0.43125 30.694 1.36875 31.619 2.46875 31.9065C2.79375 31.9877 4.25625 32.0002 14.75 32.0002C27.8875 32.0002 26.9875 32.0252 27.7688 31.6065C28.25 31.3502 28.85 30.7502 29.1063 30.269C29.5188 29.5065 29.5 29.869 29.5 22.2502C29.5 14.6315 29.5188 14.994 29.1063 14.2315C28.85 13.7502 28.25 13.1502 27.7688 12.894C26.9875 12.4752 27.8938 12.5002 14.7188 12.5065C4.5 12.5065 2.73125 12.519 2.44375 12.6002ZM7.21875 16.044C7.55625 16.219 7.80625 16.4752 7.9625 16.8127C8.08125 17.069 8.09375 17.2065 8.09375 18.219C8.09375 19.5377 8.03125 19.7752 7.6 20.1752C7.19375 20.5502 7.00625 20.594 5.71875 20.594C4.475 20.594 4.2375 20.5377 3.85 20.1502C3.4625 19.7627 3.40625 19.5252 3.40625 18.2502C3.40625 16.9752 3.4625 16.7377 3.85 16.3565C4.26875 15.9377 4.55625 15.8752 5.9375 15.9002C6.8375 15.9127 7 15.9315 7.21875 16.044ZM7.65625 25.9377C7.8125 25.9752 7.98125 26.0752 8.1125 26.2127C8.28125 26.4002 8.3125 26.4815 8.3125 26.7502C8.3125 27.019 8.28125 27.1002 8.1125 27.2877C7.98125 27.4252 7.8125 27.5252 7.65625 27.5627C7.33125 27.6377 4.41875 27.6377 4.09375 27.5627C3.9375 27.5252 3.76875 27.4252 3.64375 27.2877C3.46875 27.1002 3.4375 27.019 3.4375 26.7502C3.4375 26.4815 3.46875 26.4002 3.64375 26.2127C3.75625 26.0877 3.9375 25.969 4.0625 25.9377C4.36875 25.869 7.35 25.8627 7.65625 25.9377ZM16.6562 25.9377C16.8125 25.9752 16.9813 26.0752 17.1125 26.2127C17.2812 26.4002 17.3125 26.4815 17.3125 26.7502C17.3125 27.019 17.2812 27.1002 17.1125 27.2877C16.9813 27.4252 16.8125 27.5252 16.6562 27.5627C16.3313 27.6377 13.1687 27.6377 12.8438 27.5627C12.6875 27.5252 12.5188 27.4252 12.3938 27.2877C12.2188 27.1002 12.1875 27.019 12.1875 26.7502C12.1875 26.4815 12.2188 26.4002 12.3938 26.2127C12.5063 26.0877 12.6875 25.969 12.8125 25.9377C13.1188 25.869 16.35 25.8627 16.6562 25.9377ZM25.4062 25.9377C25.5625 25.9752 25.7313 26.0752 25.8625 26.2127C26.0312 26.4002 26.0625 26.4815 26.0625 26.7502C26.0625 27.019 26.0312 27.1002 25.8625 27.2877C25.7313 27.4252 25.5625 27.5252 25.4062 27.5627C25.0813 27.6377 22.1688 27.6377 21.8438 27.5627C21.6875 27.5252 21.5188 27.4252 21.3938 27.2877C21.2188 27.1002 21.1875 27.019 21.1875 26.7502C21.1875 26.4815 21.2188 26.4002 21.3938 26.2127C21.5063 26.0877 21.6875 25.969 21.8125 25.9377C22.1187 25.869 25.1 25.8627 25.4062 25.9377Z" fill="#F4F0EC"/>
</g>
<defs>
<clipPath id="clip0_15_18418">
<rect width="32" height="32" fill="white"/>
</clipPath>
</defs>
</svg>
