<svg width="29" height="29" viewBox="0 0 29 29" fill="none" xmlns="http://www.w3.org/2000/svg">
<path d="M7.41426 4.25371C3.66465 6.59863 0.509766 8.59238 0.402148 8.68867C0.130273 8.94355 0 9.24941 0 9.67422C0 10.2406 0.305859 10.7051 0.849609 10.9543L1.10449 11.0732H14.5H27.8955L28.1504 10.9543C28.6941 10.7051 29 10.2406 29 9.67422C29 9.24941 28.8697 8.94355 28.5979 8.68867C28.4902 8.59238 25.3354 6.59863 21.5857 4.25371C15.0324 0.164257 14.7605 0 14.5 0C14.2395 0 13.9676 0.164257 7.41426 4.25371ZM15.1627 4.29336C16.5051 4.75781 16.9695 6.48535 16.035 7.54453C15.5875 8.0543 14.8229 8.3375 14.2055 8.22422C13.5031 8.09395 12.9764 7.70312 12.6762 7.09141C12.5119 6.75723 12.4893 6.66094 12.4893 6.23047C12.4893 5.82266 12.5119 5.69805 12.6479 5.40918C12.8971 4.87109 13.3785 4.43496 13.8939 4.2707C14.2338 4.16875 14.8172 4.18008 15.1627 4.29336Z" fill="#F4F0EC"/>
<path d="M13.9331 4.9335C13.1005 5.30732 12.84 6.28721 13.3667 7.04619C13.8765 7.79385 15.1226 7.79385 15.6324 7.04619C16.3007 6.0833 15.655 4.81455 14.4996 4.81455C14.307 4.81455 14.0917 4.85986 13.9331 4.9335Z" fill="#F4F0EC"/>
<path d="M2.03906 17.9551V24.1855H4.13477H6.23047V19.6373C6.23047 14.4604 6.21348 14.6756 6.6666 14.2395C7.3123 13.6107 8.29785 13.7523 8.7623 14.5396L8.9209 14.8115L8.93789 19.4957L8.94922 24.1855H11.0449H13.1406V19.609C13.1406 14.4434 13.1236 14.6869 13.5711 14.2395C14.0469 13.7637 14.7662 13.7127 15.3043 14.1205C15.4346 14.2225 15.6045 14.432 15.6838 14.585L15.8311 14.8625L15.848 19.524L15.8594 24.1855H17.9551H20.0508L20.0621 19.4957L20.0791 14.8115L20.2377 14.5396C20.7021 13.7523 21.6877 13.6107 22.3334 14.2395C22.7865 14.6756 22.7695 14.4604 22.7695 19.6373V24.1855H24.8652H26.9609V17.9551V11.7246H14.5H2.03906V17.9551Z" fill="#F4F0EC"/>
<path d="M1.68789 24.8881C1.24609 25.007 0.889258 25.3412 0.747656 25.766C0.708008 25.8849 0.679688 26.3494 0.679688 26.9555C0.679688 27.8844 0.691016 27.975 0.815625 28.2355C0.889258 28.3941 1.03086 28.5924 1.13281 28.6773C1.54063 29.0228 0.532422 29.0002 14.5057 29.0002H27.3008L27.5557 28.8812C27.8445 28.7453 28.0598 28.5131 28.2127 28.1789C28.3033 27.9863 28.3203 27.7994 28.3203 26.9271C28.3203 25.9246 28.3203 25.9019 28.1674 25.5961C27.9748 25.2223 27.635 24.956 27.2441 24.8711C26.7967 24.7748 2.04473 24.7918 1.68789 24.8881Z" fill="#F4F0EC"/>
</svg>
