<svg width="20" height="20" viewBox="0 0 20 20" fill="none" xmlns="http://www.w3.org/2000/svg">
<path d="M16.9896 0.5H16.0055C16.7084 0.767118 17.0739 1.46537 17.0739 2.50104V16.499C17.0739 17.5346 16.7459 18.2469 16.0055 18.5H16.9896C18.1002 18.5 18.9953 17.6002 18.9953 16.499V2.50104C18.9953 1.39977 18.1002 0.5 16.9896 0.5Z" fill="#E3770B"/>
<path d="M14.1919 0.509372C14.1263 0.504686 14.0607 0.5 13.995 0.5H3.00104C1.89977 0.5 1 1.39977 1 2.50104V16.499C1 17.6002 1.89977 18.5 3.00104 18.5H13.9997C14.0653 18.5 14.131 18.4953 14.1966 18.4906C15.2041 18.3922 16.0008 17.5346 16.0008 16.499V2.50104C15.9961 1.46537 15.1994 0.607784 14.1919 0.509372ZM7.74824 9.49766L5.12393 7.99805L2.49961 9.49766V1.99961H7.74824V9.49766Z" fill="#E3770B"/>
</svg>
